<?xml version="1.0" encoding="UTF-8" standalone="no"?>
<!DOCTYPE svg PUBLIC "-//W3C//DTD SVG 1.1//EN"
 "http://www.w3.org/Graphics/SVG/1.1/DTD/svg11.dtd">
<!-- Generated by graphviz version 2.44.1 (20200629.0846)
 -->
<!-- Pages: 1 -->
<svg width="832pt" height="1450pt"
 viewBox="0.00 0.00 832.00 1450.00" xmlns="http://www.w3.org/2000/svg" xmlns:xlink="http://www.w3.org/1999/xlink">
<g id="graph0" class="graph" transform="scale(1 1) rotate(0) translate(4 1446)">
<polygon fill="#f6f6f6" stroke="transparent" points="-4,4 -4,-1446 828,-1446 828,4 -4,4"/>
<g id="clust1" class="cluster">
<title>cluster_192.168.0.200</title>
<polygon fill="#eceff1" stroke="black" points="8,-8 8,-1434 816,-1434 816,-8 8,-8"/>
<text text-anchor="middle" x="412" y="-1418.8" font-family="Times,serif" font-size="14.00">192.168.0.200</text>
</g>
<g id="clust2" class="cluster">
<title>cluster_namespace_monitoring</title>
<polygon fill="#e3f2fd" stroke="black" points="16,-16 16,-1403 808,-1403 808,-16 16,-16"/>
<text text-anchor="middle" x="412" y="-1387.8" font-family="Times,serif" font-size="14.00">monitoring</text>
</g>
<!-- 03bb06ee&#45;3478&#45;47de&#45;a239&#45;4ae5f8b31f08 -->
<g id="node1" class="node">
<title>03bb06ee&#45;3478&#45;47de&#45;a239&#45;4ae5f8b31f08</title>
<polygon fill="#ffffff" stroke="#d3d3d3" points="314.5,-155 314.5,-201 405.5,-201 405.5,-155 314.5,-155"/>
<text text-anchor="start" x="322.5" y="-185.8" font-family="Times,serif" font-size="14.00">Pod</text>
<polyline fill="none" stroke="#d3d3d3" points="314.5,-178 405.5,-178 "/>
<text text-anchor="start" x="322.5" y="-162.8" font-family="Times,serif" font-size="14.00">telegraf&#45;dbsct</text>
</g>
<!-- 7ee48df0&#45;1e53&#45;2f28&#45;634a&#45;283b31b48598 -->
<g id="node23" class="node">
<title>7ee48df0&#45;1e53&#45;2f28&#45;634a&#45;283b31b48598</title>
<polygon fill="#ffffff" stroke="#d3d3d3" points="557.5,-155 557.5,-201 627.5,-201 627.5,-155 557.5,-155"/>
<text text-anchor="start" x="565.5" y="-185.8" font-family="Times,serif" font-size="14.00">Container</text>
<polyline fill="none" stroke="#d3d3d3" points="557.5,-178 627.5,-178 "/>
<text text-anchor="start" x="565.5" y="-162.8" font-family="Times,serif" font-size="14.00">telegraf</text>
</g>
<!-- 03bb06ee&#45;3478&#45;47de&#45;a239&#45;4ae5f8b31f08&#45;&gt;7ee48df0&#45;1e53&#45;2f28&#45;634a&#45;283b31b48598 -->
<g id="edge1" class="edge">
<title>03bb06ee&#45;3478&#45;47de&#45;a239&#45;4ae5f8b31f08&#45;&gt;7ee48df0&#45;1e53&#45;2f28&#45;634a&#45;283b31b48598</title>
<path fill="none" stroke="#4284f3" d="M405.72,-178C446.54,-178 506.56,-178 547.24,-178"/>
<polygon fill="#4284f3" stroke="#4284f3" points="547.4,-181.5 557.4,-178 547.4,-174.5 547.4,-181.5"/>
</g>
<!-- 03cddb44&#45;8d7c&#45;430c&#45;b391&#45;b92483c377c4 -->
<g id="node2" class="node">
<title>03cddb44&#45;8d7c&#45;430c&#45;b391&#45;b92483c377c4</title>
<polygon fill="#ffffff" stroke="#d3d3d3" points="28,-1325 28,-1371 210,-1371 210,-1325 28,-1325"/>
<text text-anchor="start" x="36" y="-1355.8" font-family="Times,serif" font-size="14.00">Job</text>
<polyline fill="none" stroke="#d3d3d3" points="28,-1348 210,-1348 "/>
<text text-anchor="start" x="36" y="-1332.8" font-family="Times,serif" font-size="14.00">telefraf&#45;speedtest&#45;1603554000</text>
</g>
<!-- bb7f1001&#45;3c90&#45;4c4a&#45;94e4&#45;23c5ea2f0206 -->
<g id="node37" class="node">
<title>bb7f1001&#45;3c90&#45;4c4a&#45;94e4&#45;23c5ea2f0206</title>
<polygon fill="#ffffff" stroke="#d3d3d3" points="250,-1325 250,-1371 470,-1371 470,-1325 250,-1325"/>
<text text-anchor="start" x="258" y="-1355.8" font-family="Times,serif" font-size="14.00">Pod</text>
<polyline fill="none" stroke="#d3d3d3" points="250,-1348 470,-1348 "/>
<text text-anchor="start" x="258" y="-1332.8" font-family="Times,serif" font-size="14.00">telefraf&#45;speedtest&#45;1603554000&#45;gzfwq</text>
</g>
<!-- 03cddb44&#45;8d7c&#45;430c&#45;b391&#45;b92483c377c4&#45;&gt;bb7f1001&#45;3c90&#45;4c4a&#45;94e4&#45;23c5ea2f0206 -->
<g id="edge2" class="edge">
<title>03cddb44&#45;8d7c&#45;430c&#45;b391&#45;b92483c377c4&#45;&gt;bb7f1001&#45;3c90&#45;4c4a&#45;94e4&#45;23c5ea2f0206</title>
<path fill="none" stroke="#4284f3" d="M210.02,-1348C219.64,-1348 229.54,-1348 239.43,-1348"/>
<polygon fill="#4284f3" stroke="#4284f3" points="239.74,-1351.5 249.74,-1348 239.74,-1344.5 239.74,-1351.5"/>
</g>
<!-- 0c9eed70&#45;f8b2&#45;408a&#45;a70a&#45;865da103a5ff -->
<g id="node3" class="node">
<title>0c9eed70&#45;f8b2&#45;408a&#45;a70a&#45;865da103a5ff</title>
<polygon fill="#ffffff" stroke="#d3d3d3" points="79,-1260 79,-1306 159,-1306 159,-1260 79,-1260"/>
<text text-anchor="start" x="87" y="-1290.8" font-family="Times,serif" font-size="14.00">CronJob</text>
<polyline fill="none" stroke="#d3d3d3" points="79,-1283 159,-1283 "/>
<text text-anchor="start" x="87" y="-1267.8" font-family="Times,serif" font-size="14.00">telefraf&#45;mtr</text>
</g>
<!-- 0ddc1c7d&#45;49c2&#45;4d22&#45;b08f&#45;f840d61032c1 -->
<g id="node4" class="node">
<title>0ddc1c7d&#45;49c2&#45;4d22&#45;b08f&#45;f840d61032c1</title>
<polygon fill="#ffffff" stroke="#d3d3d3" points="296,-480 296,-526 424,-526 424,-480 296,-480"/>
<text text-anchor="start" x="304" y="-510.8" font-family="Times,serif" font-size="14.00">ReplicaSet</text>
<polyline fill="none" stroke="#d3d3d3" points="296,-503 424,-503 "/>
<text text-anchor="start" x="304" y="-487.8" font-family="Times,serif" font-size="14.00">grafana&#45;56858b8cc8</text>
</g>
<!-- 9e72b254&#45;4954&#45;41ad&#45;962d&#45;7ab0b90d6a30 -->
<g id="node30" class="node">
<title>9e72b254&#45;4954&#45;41ad&#45;962d&#45;7ab0b90d6a30</title>
<polygon fill="#ffffff" stroke="#d3d3d3" points="507.5,-480 507.5,-526 677.5,-526 677.5,-480 507.5,-480"/>
<text text-anchor="start" x="515.5" y="-510.8" font-family="Times,serif" font-size="14.00">Pod</text>
<polyline fill="none" stroke="#d3d3d3" points="507.5,-503 677.5,-503 "/>
<text text-anchor="start" x="515.5" y="-487.8" font-family="Times,serif" font-size="14.00">grafana&#45;56858b8cc8&#45;mpph6</text>
</g>
<!-- 0ddc1c7d&#45;49c2&#45;4d22&#45;b08f&#45;f840d61032c1&#45;&gt;9e72b254&#45;4954&#45;41ad&#45;962d&#45;7ab0b90d6a30 -->
<g id="edge3" class="edge">
<title>0ddc1c7d&#45;49c2&#45;4d22&#45;b08f&#45;f840d61032c1&#45;&gt;9e72b254&#45;4954&#45;41ad&#45;962d&#45;7ab0b90d6a30</title>
<path fill="none" stroke="#4284f3" d="M424.29,-503C446.78,-503 472.61,-503 497.13,-503"/>
<polygon fill="#4284f3" stroke="#4284f3" points="497.18,-506.5 507.18,-503 497.18,-499.5 497.18,-506.5"/>
</g>
<!-- 1d221322&#45;0b76&#45;4aa0&#45;9b18&#45;184e78987b56 -->
<g id="node5" class="node">
<title>1d221322&#45;0b76&#45;4aa0&#45;9b18&#45;184e78987b56</title>
<polygon fill="#ffffff" stroke="#d3d3d3" points="318,-220 318,-266 402,-266 402,-220 318,-220"/>
<text text-anchor="start" x="326" y="-250.8" font-family="Times,serif" font-size="14.00">Endpoints</text>
<polyline fill="none" stroke="#d3d3d3" points="318,-243 402,-243 "/>
<text text-anchor="start" x="326" y="-227.8" font-family="Times,serif" font-size="14.00">influxdb&#45;svc</text>
</g>
<!-- cd88c9c5&#45;70bf&#45;4287&#45;8b28&#45;7c0147076ed8 -->
<g id="node40" class="node">
<title>cd88c9c5&#45;70bf&#45;4287&#45;8b28&#45;7c0147076ed8</title>
<polygon fill="#ffffff" stroke="#d3d3d3" points="506,-220 506,-266 679,-266 679,-220 506,-220"/>
<text text-anchor="start" x="514" y="-250.8" font-family="Times,serif" font-size="14.00">Pod</text>
<polyline fill="none" stroke="#d3d3d3" points="506,-243 679,-243 "/>
<text text-anchor="start" x="514" y="-227.8" font-family="Times,serif" font-size="14.00">influxdb&#45;5d54bb97dc&#45;hwbcb</text>
</g>
<!-- 1d221322&#45;0b76&#45;4aa0&#45;9b18&#45;184e78987b56&#45;&gt;cd88c9c5&#45;70bf&#45;4287&#45;8b28&#45;7c0147076ed8 -->
<g id="edge4" class="edge">
<title>1d221322&#45;0b76&#45;4aa0&#45;9b18&#45;184e78987b56&#45;&gt;cd88c9c5&#45;70bf&#45;4287&#45;8b28&#45;7c0147076ed8</title>
<path fill="none" stroke="#4284f3" d="M402.21,-243C428.26,-243 463.07,-243 495.72,-243"/>
<polygon fill="#4284f3" stroke="#4284f3" points="495.78,-246.5 505.78,-243 495.78,-239.5 495.78,-246.5"/>
</g>
<!-- 257231a5&#45;5bff&#45;4d64&#45;98df&#45;e9ac70ff1219 -->
<g id="node6" class="node">
<title>257231a5&#45;5bff&#45;4d64&#45;98df&#45;e9ac70ff1219</title>
<polygon fill="#ffffff" stroke="#d3d3d3" points="320,-415 320,-461 400,-461 400,-415 320,-415"/>
<text text-anchor="start" x="328" y="-445.8" font-family="Times,serif" font-size="14.00">Endpoints</text>
<polyline fill="none" stroke="#d3d3d3" points="320,-438 400,-438 "/>
<text text-anchor="start" x="328" y="-422.8" font-family="Times,serif" font-size="14.00">grafana&#45;svc</text>
</g>
<!-- 257231a5&#45;5bff&#45;4d64&#45;98df&#45;e9ac70ff1219&#45;&gt;9e72b254&#45;4954&#45;41ad&#45;962d&#45;7ab0b90d6a30 -->
<g id="edge5" class="edge">
<title>257231a5&#45;5bff&#45;4d64&#45;98df&#45;e9ac70ff1219&#45;&gt;9e72b254&#45;4954&#45;41ad&#45;962d&#45;7ab0b90d6a30</title>
<path fill="none" stroke="#4284f3" d="M400.1,-449.03C427.46,-456.74 465.17,-467.38 499.89,-477.17"/>
<polygon fill="#4284f3" stroke="#4284f3" points="499.02,-480.56 509.6,-479.9 500.92,-473.82 499.02,-480.56"/>
</g>
<!-- 2738d264&#45;549b&#45;c4e7&#45;4b21&#45;b12830dc5064 -->
<g id="node7" class="node">
<title>2738d264&#45;549b&#45;c4e7&#45;4b21&#45;b12830dc5064</title>
<polygon fill="#ffffff" stroke="#d3d3d3" points="557.5,-25 557.5,-71 627.5,-71 627.5,-25 557.5,-25"/>
<text text-anchor="start" x="565.5" y="-55.8" font-family="Times,serif" font-size="14.00">Container</text>
<polyline fill="none" stroke="#d3d3d3" points="557.5,-48 627.5,-48 "/>
<text text-anchor="start" x="565.5" y="-32.8" font-family="Times,serif" font-size="14.00">telegraf</text>
</g>
<!-- 2b7b751a&#45;c56f&#45;4fc9&#45;aab3&#45;8bcc9ef758d9 -->
<g id="node8" class="node">
<title>2b7b751a&#45;c56f&#45;4fc9&#45;aab3&#45;8bcc9ef758d9</title>
<polygon fill="#ffffff" stroke="#d3d3d3" points="43,-1195 43,-1241 195,-1241 195,-1195 43,-1195"/>
<text text-anchor="start" x="51" y="-1225.8" font-family="Times,serif" font-size="14.00">Job</text>
<polyline fill="none" stroke="#d3d3d3" points="43,-1218 195,-1218 "/>
<text text-anchor="start" x="51" y="-1202.8" font-family="Times,serif" font-size="14.00">telefraf&#45;mtr&#45;1603554000</text>
</g>
<!-- 9cca5c49&#45;ee19&#45;482d&#45;a506&#45;d416e7efd70e -->
<g id="node28" class="node">
<title>9cca5c49&#45;ee19&#45;482d&#45;a506&#45;d416e7efd70e</title>
<polygon fill="#ffffff" stroke="#d3d3d3" points="268,-1195 268,-1241 452,-1241 452,-1195 268,-1195"/>
<text text-anchor="start" x="276" y="-1225.8" font-family="Times,serif" font-size="14.00">Pod</text>
<polyline fill="none" stroke="#d3d3d3" points="268,-1218 452,-1218 "/>
<text text-anchor="start" x="276" y="-1202.8" font-family="Times,serif" font-size="14.00">telefraf&#45;mtr&#45;1603554000&#45;xjdtx</text>
</g>
<!-- 2b7b751a&#45;c56f&#45;4fc9&#45;aab3&#45;8bcc9ef758d9&#45;&gt;9cca5c49&#45;ee19&#45;482d&#45;a506&#45;d416e7efd70e -->
<g id="edge6" class="edge">
<title>2b7b751a&#45;c56f&#45;4fc9&#45;aab3&#45;8bcc9ef758d9&#45;&gt;9cca5c49&#45;ee19&#45;482d&#45;a506&#45;d416e7efd70e</title>
<path fill="none" stroke="#4284f3" d="M195.29,-1218C215.05,-1218 236.68,-1218 257.56,-1218"/>
<polygon fill="#4284f3" stroke="#4284f3" points="257.73,-1221.5 267.73,-1218 257.73,-1214.5 257.73,-1221.5"/>
</g>
<!-- 3403f7e1&#45;58c9&#45;fd61&#45;519f&#45;236620837808 -->
<g id="node9" class="node">
<title>3403f7e1&#45;58c9&#45;fd61&#45;519f&#45;236620837808</title>
<polygon fill="#ffffff" stroke="#d3d3d3" points="715,-285 715,-331 800,-331 800,-285 715,-285"/>
<text text-anchor="start" x="723" y="-315.8" font-family="Times,serif" font-size="14.00">Container</text>
<polyline fill="none" stroke="#d3d3d3" points="715,-308 800,-308 "/>
<text text-anchor="start" x="723" y="-292.8" font-family="Times,serif" font-size="14.00">lb&#45;port&#45;3000</text>
</g>
<!-- 3465d92a&#45;ab01&#45;6ac0&#45;b3dd&#45;4aa8384263d9 -->
<g id="node10" class="node">
<title>3465d92a&#45;ab01&#45;6ac0&#45;b3dd&#45;4aa8384263d9</title>
<polygon fill="#ffffff" stroke="#d3d3d3" points="722.5,-220 722.5,-266 792.5,-266 792.5,-220 722.5,-220"/>
<text text-anchor="start" x="730.5" y="-250.8" font-family="Times,serif" font-size="14.00">Container</text>
<polyline fill="none" stroke="#d3d3d3" points="722.5,-243 792.5,-243 "/>
<text text-anchor="start" x="730.5" y="-227.8" font-family="Times,serif" font-size="14.00">influxdb</text>
</g>
<!-- 425dfdfc&#45;62fa&#45;4c78&#45;be84&#45;c16c2afaa22f -->
<g id="node11" class="node">
<title>425dfdfc&#45;62fa&#45;4c78&#45;be84&#45;c16c2afaa22f</title>
<polygon fill="#ffffff" stroke="#d3d3d3" points="518,-350 518,-396 667,-396 667,-350 518,-350"/>
<text text-anchor="start" x="526" y="-380.8" font-family="Times,serif" font-size="14.00">Pod</text>
<polyline fill="none" stroke="#d3d3d3" points="518,-373 667,-373 "/>
<text text-anchor="start" x="526" y="-357.8" font-family="Times,serif" font-size="14.00">svclb&#45;grafana&#45;svc&#45;vsvlw</text>
</g>
<!-- d46f328c&#45;1fda&#45;055c&#45;7df9&#45;30dd6394a8b8 -->
<g id="node42" class="node">
<title>d46f328c&#45;1fda&#45;055c&#45;7df9&#45;30dd6394a8b8</title>
<polygon fill="#ffffff" stroke="#d3d3d3" points="715,-350 715,-396 800,-396 800,-350 715,-350"/>
<text text-anchor="start" x="723" y="-380.8" font-family="Times,serif" font-size="14.00">Container</text>
<polyline fill="none" stroke="#d3d3d3" points="715,-373 800,-373 "/>
<text text-anchor="start" x="723" y="-357.8" font-family="Times,serif" font-size="14.00">lb&#45;port&#45;3000</text>
</g>
<!-- 425dfdfc&#45;62fa&#45;4c78&#45;be84&#45;c16c2afaa22f&#45;&gt;d46f328c&#45;1fda&#45;055c&#45;7df9&#45;30dd6394a8b8 -->
<g id="edge7" class="edge">
<title>425dfdfc&#45;62fa&#45;4c78&#45;be84&#45;c16c2afaa22f&#45;&gt;d46f328c&#45;1fda&#45;055c&#45;7df9&#45;30dd6394a8b8</title>
<path fill="none" stroke="#4284f3" d="M667.37,-373C680.01,-373 692.89,-373 704.8,-373"/>
<polygon fill="#4284f3" stroke="#4284f3" points="704.97,-376.5 714.97,-373 704.97,-369.5 704.97,-376.5"/>
</g>
<!-- 4c69b87b&#45;f38c&#45;97bd&#45;bf89&#45;86f67b5fae91 -->
<g id="node12" class="node">
<title>4c69b87b&#45;f38c&#45;97bd&#45;bf89&#45;86f67b5fae91</title>
<polygon fill="#ffffff" stroke="#d3d3d3" points="551.5,-1000 551.5,-1046 633.5,-1046 633.5,-1000 551.5,-1000"/>
<text text-anchor="start" x="559.5" y="-1030.8" font-family="Times,serif" font-size="14.00">Container</text>
<polyline fill="none" stroke="#d3d3d3" points="551.5,-1023 633.5,-1023 "/>
<text text-anchor="start" x="559.5" y="-1007.8" font-family="Times,serif" font-size="14.00">telegraf&#45;mtr</text>
</g>
<!-- 4d34a878&#45;8dd1&#45;4eb5&#45;a7dc&#45;a3e72cbedbe9 -->
<g id="node13" class="node">
<title>4d34a878&#45;8dd1&#45;4eb5&#45;a7dc&#45;a3e72cbedbe9</title>
<polygon fill="#ffffff" stroke="#d3d3d3" points="312,-25 312,-71 408,-71 408,-25 312,-25"/>
<text text-anchor="start" x="320" y="-55.8" font-family="Times,serif" font-size="14.00">Pod</text>
<polyline fill="none" stroke="#d3d3d3" points="312,-48 408,-48 "/>
<text text-anchor="start" x="320" y="-32.8" font-family="Times,serif" font-size="14.00">telegraf&#45;bpbng</text>
</g>
<!-- 4d34a878&#45;8dd1&#45;4eb5&#45;a7dc&#45;a3e72cbedbe9&#45;&gt;2738d264&#45;549b&#45;c4e7&#45;4b21&#45;b12830dc5064 -->
<g id="edge8" class="edge">
<title>4d34a878&#45;8dd1&#45;4eb5&#45;a7dc&#45;a3e72cbedbe9&#45;&gt;2738d264&#45;549b&#45;c4e7&#45;4b21&#45;b12830dc5064</title>
<path fill="none" stroke="#4284f3" d="M408.2,-48C448.95,-48 507.37,-48 547.24,-48"/>
<polygon fill="#4284f3" stroke="#4284f3" points="547.45,-51.5 557.45,-48 547.45,-44.5 547.45,-51.5"/>
</g>
<!-- 4e40c66c&#45;500e&#45;4221&#45;abb8&#45;d2e4b9586cc7 -->
<g id="node14" class="node">
<title>4e40c66c&#45;500e&#45;4221&#45;abb8&#45;d2e4b9586cc7</title>
<polygon fill="#ffffff" stroke="#d3d3d3" points="28,-1130 28,-1176 210,-1176 210,-1130 28,-1130"/>
<text text-anchor="start" x="36" y="-1160.8" font-family="Times,serif" font-size="14.00">Job</text>
<polyline fill="none" stroke="#d3d3d3" points="28,-1153 210,-1153 "/>
<text text-anchor="start" x="36" y="-1137.8" font-family="Times,serif" font-size="14.00">telefraf&#45;speedtest&#45;1603553400</text>
</g>
<!-- d00db8a7&#45;f362&#45;4b9c&#45;bb80&#45;d7f82ab60771 -->
<g id="node41" class="node">
<title>d00db8a7&#45;f362&#45;4b9c&#45;bb80&#45;d7f82ab60771</title>
<polygon fill="#ffffff" stroke="#d3d3d3" points="252,-1130 252,-1176 468,-1176 468,-1130 252,-1130"/>
<text text-anchor="start" x="260" y="-1160.8" font-family="Times,serif" font-size="14.00">Pod</text>
<polyline fill="none" stroke="#d3d3d3" points="252,-1153 468,-1153 "/>
<text text-anchor="start" x="260" y="-1137.8" font-family="Times,serif" font-size="14.00">telefraf&#45;speedtest&#45;1603553400&#45;dcbjp</text>
</g>
<!-- 4e40c66c&#45;500e&#45;4221&#45;abb8&#45;d2e4b9586cc7&#45;&gt;d00db8a7&#45;f362&#45;4b9c&#45;bb80&#45;d7f82ab60771 -->
<g id="edge9" class="edge">
<title>4e40c66c&#45;500e&#45;4221&#45;abb8&#45;d2e4b9586cc7&#45;&gt;d00db8a7&#45;f362&#45;4b9c&#45;bb80&#45;d7f82ab60771</title>
<path fill="none" stroke="#4284f3" d="M210.02,-1153C220.34,-1153 230.99,-1153 241.61,-1153"/>
<polygon fill="#4284f3" stroke="#4284f3" points="241.77,-1156.5 251.77,-1153 241.77,-1149.5 241.77,-1156.5"/>
</g>
<!-- 53c3d993&#45;7c0f&#45;4c67&#45;bc5c&#45;9a831e380156 -->
<g id="node15" class="node">
<title>53c3d993&#45;7c0f&#45;4c67&#45;bc5c&#45;9a831e380156</title>
<polygon fill="#ffffff" stroke="#d3d3d3" points="315.5,-90 315.5,-136 404.5,-136 404.5,-90 315.5,-90"/>
<text text-anchor="start" x="323.5" y="-120.8" font-family="Times,serif" font-size="14.00">Pod</text>
<polyline fill="none" stroke="#d3d3d3" points="315.5,-113 404.5,-113 "/>
<text text-anchor="start" x="323.5" y="-97.8" font-family="Times,serif" font-size="14.00">telegraf&#45;g2ljs</text>
</g>
<!-- 7428ea6f&#45;16db&#45;7e88&#45;f676&#45;ead77cee627c -->
<g id="node21" class="node">
<title>7428ea6f&#45;16db&#45;7e88&#45;f676&#45;ead77cee627c</title>
<polygon fill="#ffffff" stroke="#d3d3d3" points="557.5,-90 557.5,-136 627.5,-136 627.5,-90 557.5,-90"/>
<text text-anchor="start" x="565.5" y="-120.8" font-family="Times,serif" font-size="14.00">Container</text>
<polyline fill="none" stroke="#d3d3d3" points="557.5,-113 627.5,-113 "/>
<text text-anchor="start" x="565.5" y="-97.8" font-family="Times,serif" font-size="14.00">telegraf</text>
</g>
<!-- 53c3d993&#45;7c0f&#45;4c67&#45;bc5c&#45;9a831e380156&#45;&gt;7428ea6f&#45;16db&#45;7e88&#45;f676&#45;ead77cee627c -->
<g id="edge10" class="edge">
<title>53c3d993&#45;7c0f&#45;4c67&#45;bc5c&#45;9a831e380156&#45;&gt;7428ea6f&#45;16db&#45;7e88&#45;f676&#45;ead77cee627c</title>
<path fill="none" stroke="#4284f3" d="M404.63,-113C445.45,-113 506.13,-113 547.18,-113"/>
<polygon fill="#4284f3" stroke="#4284f3" points="547.43,-116.5 557.43,-113 547.42,-109.5 547.43,-116.5"/>
</g>
<!-- 54e52f54&#45;9c38&#45;4dc2&#45;b493&#45;4c96c144fbef -->
<g id="node16" class="node">
<title>54e52f54&#45;9c38&#45;4dc2&#45;b493&#45;4c96c144fbef</title>
<polygon fill="#ffffff" stroke="#d3d3d3" points="266,-675 266,-721 454,-721 454,-675 266,-675"/>
<text text-anchor="start" x="274" y="-705.8" font-family="Times,serif" font-size="14.00">Pod</text>
<polyline fill="none" stroke="#d3d3d3" points="266,-698 454,-698 "/>
<text text-anchor="start" x="274" y="-682.8" font-family="Times,serif" font-size="14.00">telefraf&#45;mtr&#45;1603552800&#45;pfh74</text>
</g>
<!-- a5fdb550&#45;74b2&#45;16d8&#45;be44&#45;d3566ab1bcb2 -->
<g id="node32" class="node">
<title>a5fdb550&#45;74b2&#45;16d8&#45;be44&#45;d3566ab1bcb2</title>
<polygon fill="#ffffff" stroke="#d3d3d3" points="551.5,-675 551.5,-721 633.5,-721 633.5,-675 551.5,-675"/>
<text text-anchor="start" x="559.5" y="-705.8" font-family="Times,serif" font-size="14.00">Container</text>
<polyline fill="none" stroke="#d3d3d3" points="551.5,-698 633.5,-698 "/>
<text text-anchor="start" x="559.5" y="-682.8" font-family="Times,serif" font-size="14.00">telegraf&#45;mtr</text>
</g>
<!-- 54e52f54&#45;9c38&#45;4dc2&#45;b493&#45;4c96c144fbef&#45;&gt;a5fdb550&#45;74b2&#45;16d8&#45;be44&#45;d3566ab1bcb2 -->
<g id="edge11" class="edge">
<title>54e52f54&#45;9c38&#45;4dc2&#45;b493&#45;4c96c144fbef&#45;&gt;a5fdb550&#45;74b2&#45;16d8&#45;be44&#45;d3566ab1bcb2</title>
<path fill="none" stroke="#4284f3" d="M454.09,-698C483.85,-698 515.66,-698 541.17,-698"/>
<polygon fill="#4284f3" stroke="#4284f3" points="541.33,-701.5 551.33,-698 541.33,-694.5 541.33,-701.5"/>
</g>
<!-- 57585d76&#45;cf32&#45;47f8&#45;84d0&#45;4d0f857ffb31 -->
<g id="node17" class="node">
<title>57585d76&#45;cf32&#45;47f8&#45;84d0&#45;4d0f857ffb31</title>
<polygon fill="#ffffff" stroke="#d3d3d3" points="303.5,-350 303.5,-396 416.5,-396 416.5,-350 303.5,-350"/>
<text text-anchor="start" x="311.5" y="-380.8" font-family="Times,serif" font-size="14.00">DaemonSet</text>
<polyline fill="none" stroke="#d3d3d3" points="303.5,-373 416.5,-373 "/>
<text text-anchor="start" x="311.5" y="-357.8" font-family="Times,serif" font-size="14.00">svclb&#45;grafana&#45;svc</text>
</g>
<!-- 57585d76&#45;cf32&#45;47f8&#45;84d0&#45;4d0f857ffb31&#45;&gt;425dfdfc&#45;62fa&#45;4c78&#45;be84&#45;c16c2afaa22f -->
<g id="edge14" class="edge">
<title>57585d76&#45;cf32&#45;47f8&#45;84d0&#45;4d0f857ffb31&#45;&gt;425dfdfc&#45;62fa&#45;4c78&#45;be84&#45;c16c2afaa22f</title>
<path fill="none" stroke="#4284f3" d="M416.5,-373C443.79,-373 477.26,-373 507.59,-373"/>
<polygon fill="#4284f3" stroke="#4284f3" points="507.74,-376.5 517.74,-373 507.74,-369.5 507.74,-376.5"/>
</g>
<!-- 8d7ceda2&#45;1e88&#45;43d6&#45;922b&#45;0a2e97641c45 -->
<g id="node26" class="node">
<title>8d7ceda2&#45;1e88&#45;43d6&#45;922b&#45;0a2e97641c45</title>
<polygon fill="#ffffff" stroke="#d3d3d3" points="517,-415 517,-461 668,-461 668,-415 517,-415"/>
<text text-anchor="start" x="525" y="-445.8" font-family="Times,serif" font-size="14.00">Pod</text>
<polyline fill="none" stroke="#d3d3d3" points="517,-438 668,-438 "/>
<text text-anchor="start" x="525" y="-422.8" font-family="Times,serif" font-size="14.00">svclb&#45;grafana&#45;svc&#45;n4xxx</text>
</g>
<!-- 57585d76&#45;cf32&#45;47f8&#45;84d0&#45;4d0f857ffb31&#45;&gt;8d7ceda2&#45;1e88&#45;43d6&#45;922b&#45;0a2e97641c45 -->
<g id="edge13" class="edge">
<title>57585d76&#45;cf32&#45;47f8&#45;84d0&#45;4d0f857ffb31&#45;&gt;8d7ceda2&#45;1e88&#45;43d6&#45;922b&#45;0a2e97641c45</title>
<path fill="none" stroke="#4284f3" d="M416.5,-388.65C443.67,-396.31 476.96,-405.7 507.18,-414.22"/>
<polygon fill="#4284f3" stroke="#4284f3" points="506.3,-417.61 516.87,-416.96 508.2,-410.87 506.3,-417.61"/>
</g>
<!-- 9d6ba88a&#45;4d50&#45;44c9&#45;836b&#45;4bbf2007c7fd -->
<g id="node29" class="node">
<title>9d6ba88a&#45;4d50&#45;44c9&#45;836b&#45;4bbf2007c7fd</title>
<polygon fill="#ffffff" stroke="#d3d3d3" points="518,-285 518,-331 667,-331 667,-285 518,-285"/>
<text text-anchor="start" x="526" y="-315.8" font-family="Times,serif" font-size="14.00">Pod</text>
<polyline fill="none" stroke="#d3d3d3" points="518,-308 667,-308 "/>
<text text-anchor="start" x="526" y="-292.8" font-family="Times,serif" font-size="14.00">svclb&#45;grafana&#45;svc&#45;8pdvf</text>
</g>
<!-- 57585d76&#45;cf32&#45;47f8&#45;84d0&#45;4d0f857ffb31&#45;&gt;9d6ba88a&#45;4d50&#45;44c9&#45;836b&#45;4bbf2007c7fd -->
<g id="edge12" class="edge">
<title>57585d76&#45;cf32&#45;47f8&#45;84d0&#45;4d0f857ffb31&#45;&gt;9d6ba88a&#45;4d50&#45;44c9&#45;836b&#45;4bbf2007c7fd</title>
<path fill="none" stroke="#4284f3" d="M416.5,-357.35C443.91,-349.62 477.55,-340.13 507.98,-331.55"/>
<polygon fill="#4284f3" stroke="#4284f3" points="509.06,-334.88 517.74,-328.8 507.16,-328.15 509.06,-334.88"/>
</g>
<!-- 6635b32d&#45;aca5&#45;4247&#45;82fc&#45;d087bbfb6177 -->
<g id="node18" class="node">
<title>6635b32d&#45;aca5&#45;4247&#45;82fc&#45;d087bbfb6177</title>
<polygon fill="#ffffff" stroke="#d3d3d3" points="24,-1065 24,-1111 214,-1111 214,-1065 24,-1065"/>
<text text-anchor="start" x="32" y="-1095.8" font-family="Times,serif" font-size="14.00">Secret</text>
<polyline fill="none" stroke="#d3d3d3" points="24,-1088 214,-1088 "/>
<text text-anchor="start" x="32" y="-1072.8" font-family="Times,serif" font-size="14.00">influxdb&#45;datasource&#45;provisioner</text>
</g>
<!-- 6963f53b&#45;bb35&#45;4af1&#45;8ee8&#45;daf47908d71b -->
<g id="node19" class="node">
<title>6963f53b&#45;bb35&#45;4af1&#45;8ee8&#45;daf47908d71b</title>
<polygon fill="#ffffff" stroke="#d3d3d3" points="293.5,-285 293.5,-331 426.5,-331 426.5,-285 293.5,-285"/>
<text text-anchor="start" x="301.5" y="-315.8" font-family="Times,serif" font-size="14.00">ReplicaSet</text>
<polyline fill="none" stroke="#d3d3d3" points="293.5,-308 426.5,-308 "/>
<text text-anchor="start" x="301.5" y="-292.8" font-family="Times,serif" font-size="14.00">influxdb&#45;5d54bb97dc</text>
</g>
<!-- 6963f53b&#45;bb35&#45;4af1&#45;8ee8&#45;daf47908d71b&#45;&gt;cd88c9c5&#45;70bf&#45;4287&#45;8b28&#45;7c0147076ed8 -->
<g id="edge15" class="edge">
<title>6963f53b&#45;bb35&#45;4af1&#45;8ee8&#45;daf47908d71b&#45;&gt;cd88c9c5&#45;70bf&#45;4287&#45;8b28&#45;7c0147076ed8</title>
<path fill="none" stroke="#4284f3" d="M426.74,-289.46C449.53,-283.03 475.51,-275.71 499.99,-268.8"/>
<polygon fill="#4284f3" stroke="#4284f3" points="500.98,-272.16 509.66,-266.08 499.08,-265.43 500.98,-272.16"/>
</g>
<!-- 6e84edfa&#45;edf6&#45;4636&#45;bd98&#45;007f031c762a -->
<g id="node20" class="node">
<title>6e84edfa&#45;edf6&#45;4636&#45;bd98&#45;007f031c762a</title>
<polygon fill="#ffffff" stroke="#d3d3d3" points="43,-1000 43,-1046 195,-1046 195,-1000 43,-1000"/>
<text text-anchor="start" x="51" y="-1030.8" font-family="Times,serif" font-size="14.00">Job</text>
<polyline fill="none" stroke="#d3d3d3" points="43,-1023 195,-1023 "/>
<text text-anchor="start" x="51" y="-1007.8" font-family="Times,serif" font-size="14.00">telefraf&#45;mtr&#45;1603553400</text>
</g>
<!-- e7ed50a0&#45;3f0f&#45;46ad&#45;87b3&#45;e5560dd7b540 -->
<g id="node49" class="node">
<title>e7ed50a0&#45;3f0f&#45;46ad&#45;87b3&#45;e5560dd7b540</title>
<polygon fill="#ffffff" stroke="#d3d3d3" points="269,-1000 269,-1046 451,-1046 451,-1000 269,-1000"/>
<text text-anchor="start" x="277" y="-1030.8" font-family="Times,serif" font-size="14.00">Pod</text>
<polyline fill="none" stroke="#d3d3d3" points="269,-1023 451,-1023 "/>
<text text-anchor="start" x="277" y="-1007.8" font-family="Times,serif" font-size="14.00">telefraf&#45;mtr&#45;1603553400&#45;vqfjj</text>
</g>
<!-- 6e84edfa&#45;edf6&#45;4636&#45;bd98&#45;007f031c762a&#45;&gt;e7ed50a0&#45;3f0f&#45;46ad&#45;87b3&#45;e5560dd7b540 -->
<g id="edge16" class="edge">
<title>6e84edfa&#45;edf6&#45;4636&#45;bd98&#45;007f031c762a&#45;&gt;e7ed50a0&#45;3f0f&#45;46ad&#45;87b3&#45;e5560dd7b540</title>
<path fill="none" stroke="#4284f3" d="M195.29,-1023C215.28,-1023 237.19,-1023 258.3,-1023"/>
<polygon fill="#4284f3" stroke="#4284f3" points="258.59,-1026.5 268.59,-1023 258.59,-1019.5 258.59,-1026.5"/>
</g>
<!-- 76027a23&#45;e4d3&#45;4973&#45;969d&#45;434a5b1e7b86 -->
<g id="node22" class="node">
<title>76027a23&#45;e4d3&#45;4973&#45;969d&#45;434a5b1e7b86</title>
<polygon fill="#ffffff" stroke="#d3d3d3" points="55,-935 55,-981 183,-981 183,-935 55,-935"/>
<text text-anchor="start" x="63" y="-965.8" font-family="Times,serif" font-size="14.00">ConfigMap</text>
<polyline fill="none" stroke="#d3d3d3" points="55,-958 183,-958 "/>
<text text-anchor="start" x="63" y="-942.8" font-family="Times,serif" font-size="14.00">raspberry&#45;dashboard</text>
</g>
<!-- 842a6ce1&#45;553e&#45;c7cd&#45;4d09&#45;2178ba67026e -->
<g id="node24" class="node">
<title>842a6ce1&#45;553e&#45;c7cd&#45;4d09&#45;2178ba67026e</title>
<polygon fill="#ffffff" stroke="#d3d3d3" points="715,-415 715,-461 800,-461 800,-415 715,-415"/>
<text text-anchor="start" x="723" y="-445.8" font-family="Times,serif" font-size="14.00">Container</text>
<polyline fill="none" stroke="#d3d3d3" points="715,-438 800,-438 "/>
<text text-anchor="start" x="723" y="-422.8" font-family="Times,serif" font-size="14.00">lb&#45;port&#45;3000</text>
</g>
<!-- 8cac5625&#45;129f&#45;40a8&#45;908e&#45;169af3406be7 -->
<g id="node25" class="node">
<title>8cac5625&#45;129f&#45;40a8&#45;908e&#45;169af3406be7</title>
<polygon fill="#ffffff" stroke="#d3d3d3" points="71,-870 71,-916 167,-916 167,-870 71,-870"/>
<text text-anchor="start" x="79" y="-900.8" font-family="Times,serif" font-size="14.00">ConfigMap</text>
<polyline fill="none" stroke="#d3d3d3" points="71,-893 167,-893 "/>
<text text-anchor="start" x="79" y="-877.8" font-family="Times,serif" font-size="14.00">telegraf&#45;config</text>
</g>
<!-- 8d7ceda2&#45;1e88&#45;43d6&#45;922b&#45;0a2e97641c45&#45;&gt;842a6ce1&#45;553e&#45;c7cd&#45;4d09&#45;2178ba67026e -->
<g id="edge17" class="edge">
<title>8d7ceda2&#45;1e88&#45;43d6&#45;922b&#45;0a2e97641c45&#45;&gt;842a6ce1&#45;553e&#45;c7cd&#45;4d09&#45;2178ba67026e</title>
<path fill="none" stroke="#4284f3" d="M668.32,-438C680.5,-438 692.87,-438 704.35,-438"/>
<polygon fill="#4284f3" stroke="#4284f3" points="704.61,-441.5 714.61,-438 704.61,-434.5 704.61,-441.5"/>
</g>
<!-- 94f3661f&#45;f0c2&#45;7e80&#45;5277&#45;df25c5d6bbd3 -->
<g id="node27" class="node">
<title>94f3661f&#45;f0c2&#45;7e80&#45;5277&#45;df25c5d6bbd3</title>
<polygon fill="#ffffff" stroke="#d3d3d3" points="536.5,-545 536.5,-591 648.5,-591 648.5,-545 536.5,-545"/>
<text text-anchor="start" x="544.5" y="-575.8" font-family="Times,serif" font-size="14.00">Container</text>
<polyline fill="none" stroke="#d3d3d3" points="536.5,-568 648.5,-568 "/>
<text text-anchor="start" x="544.5" y="-552.8" font-family="Times,serif" font-size="14.00">telegraf&#45;speedtest</text>
</g>
<!-- e1bdf1ab&#45;dde5&#45;3393&#45;c333&#45;a315596ab817 -->
<g id="node45" class="node">
<title>e1bdf1ab&#45;dde5&#45;3393&#45;c333&#45;a315596ab817</title>
<polygon fill="#ffffff" stroke="#d3d3d3" points="551.5,-1195 551.5,-1241 633.5,-1241 633.5,-1195 551.5,-1195"/>
<text text-anchor="start" x="559.5" y="-1225.8" font-family="Times,serif" font-size="14.00">Container</text>
<polyline fill="none" stroke="#d3d3d3" points="551.5,-1218 633.5,-1218 "/>
<text text-anchor="start" x="559.5" y="-1202.8" font-family="Times,serif" font-size="14.00">telegraf&#45;mtr</text>
</g>
<!-- 9cca5c49&#45;ee19&#45;482d&#45;a506&#45;d416e7efd70e&#45;&gt;e1bdf1ab&#45;dde5&#45;3393&#45;c333&#45;a315596ab817 -->
<g id="edge18" class="edge">
<title>9cca5c49&#45;ee19&#45;482d&#45;a506&#45;d416e7efd70e&#45;&gt;e1bdf1ab&#45;dde5&#45;3393&#45;c333&#45;a315596ab817</title>
<path fill="none" stroke="#4284f3" d="M452.1,-1218C482.54,-1218 515.33,-1218 541.46,-1218"/>
<polygon fill="#4284f3" stroke="#4284f3" points="541.49,-1221.5 551.49,-1218 541.49,-1214.5 541.49,-1221.5"/>
</g>
<!-- 9d6ba88a&#45;4d50&#45;44c9&#45;836b&#45;4bbf2007c7fd&#45;&gt;3403f7e1&#45;58c9&#45;fd61&#45;519f&#45;236620837808 -->
<g id="edge19" class="edge">
<title>9d6ba88a&#45;4d50&#45;44c9&#45;836b&#45;4bbf2007c7fd&#45;&gt;3403f7e1&#45;58c9&#45;fd61&#45;519f&#45;236620837808</title>
<path fill="none" stroke="#4284f3" d="M667.37,-308C680.01,-308 692.89,-308 704.8,-308"/>
<polygon fill="#4284f3" stroke="#4284f3" points="704.97,-311.5 714.97,-308 704.97,-304.5 704.97,-311.5"/>
</g>
<!-- b477c141&#45;6786&#45;416c&#45;5c7f&#45;eb13828992a4 -->
<g id="node35" class="node">
<title>b477c141&#45;6786&#45;416c&#45;5c7f&#45;eb13828992a4</title>
<polygon fill="#ffffff" stroke="#d3d3d3" points="722.5,-480 722.5,-526 792.5,-526 792.5,-480 722.5,-480"/>
<text text-anchor="start" x="730.5" y="-510.8" font-family="Times,serif" font-size="14.00">Container</text>
<polyline fill="none" stroke="#d3d3d3" points="722.5,-503 792.5,-503 "/>
<text text-anchor="start" x="730.5" y="-487.8" font-family="Times,serif" font-size="14.00">grafana</text>
</g>
<!-- 9e72b254&#45;4954&#45;41ad&#45;962d&#45;7ab0b90d6a30&#45;&gt;b477c141&#45;6786&#45;416c&#45;5c7f&#45;eb13828992a4 -->
<g id="edge20" class="edge">
<title>9e72b254&#45;4954&#45;41ad&#45;962d&#45;7ab0b90d6a30&#45;&gt;b477c141&#45;6786&#45;416c&#45;5c7f&#45;eb13828992a4</title>
<path fill="none" stroke="#4284f3" d="M677.86,-503C689.63,-503 701.32,-503 711.95,-503"/>
<polygon fill="#4284f3" stroke="#4284f3" points="712.18,-506.5 722.18,-503 712.18,-499.5 712.18,-506.5"/>
</g>
<!-- a575de8d&#45;da11&#45;4668&#45;9a81&#45;296423e8a32f -->
<g id="node31" class="node">
<title>a575de8d&#45;da11&#45;4668&#45;9a81&#45;296423e8a32f</title>
<polygon fill="#ffffff" stroke="#d3d3d3" points="77,-805 77,-851 161,-851 161,-805 77,-805"/>
<text text-anchor="start" x="85" y="-835.8" font-family="Times,serif" font-size="14.00">Deployment</text>
<polyline fill="none" stroke="#d3d3d3" points="77,-828 161,-828 "/>
<text text-anchor="start" x="85" y="-812.8" font-family="Times,serif" font-size="14.00">grafana</text>
</g>
<!-- a7bee01b&#45;df54&#45;4973&#45;af58&#45;f28b90588b33 -->
<g id="node33" class="node">
<title>a7bee01b&#45;df54&#45;4973&#45;af58&#45;f28b90588b33</title>
<polygon fill="#ffffff" stroke="#d3d3d3" points="58.5,-740 58.5,-786 179.5,-786 179.5,-740 58.5,-740"/>
<text text-anchor="start" x="66.5" y="-770.8" font-family="Times,serif" font-size="14.00">ConfigMap</text>
<polyline fill="none" stroke="#d3d3d3" points="58.5,-763 179.5,-763 "/>
<text text-anchor="start" x="66.5" y="-747.8" font-family="Times,serif" font-size="14.00">network&#45;dashboard</text>
</g>
<!-- b35842e2&#45;1594&#45;4cb3&#45;a6a9&#45;59e6e9985368 -->
<g id="node34" class="node">
<title>b35842e2&#45;1594&#45;4cb3&#45;a6a9&#45;59e6e9985368</title>
<polygon fill="#ffffff" stroke="#d3d3d3" points="43,-675 43,-721 195,-721 195,-675 43,-675"/>
<text text-anchor="start" x="51" y="-705.8" font-family="Times,serif" font-size="14.00">Job</text>
<polyline fill="none" stroke="#d3d3d3" points="43,-698 195,-698 "/>
<text text-anchor="start" x="51" y="-682.8" font-family="Times,serif" font-size="14.00">telefraf&#45;mtr&#45;1603552800</text>
</g>
<!-- b35842e2&#45;1594&#45;4cb3&#45;a6a9&#45;59e6e9985368&#45;&gt;54e52f54&#45;9c38&#45;4dc2&#45;b493&#45;4c96c144fbef -->
<g id="edge21" class="edge">
<title>b35842e2&#45;1594&#45;4cb3&#45;a6a9&#45;59e6e9985368&#45;&gt;54e52f54&#45;9c38&#45;4dc2&#45;b493&#45;4c96c144fbef</title>
<path fill="none" stroke="#4284f3" d="M195.29,-698C214.37,-698 235.2,-698 255.41,-698"/>
<polygon fill="#4284f3" stroke="#4284f3" points="255.59,-701.5 265.59,-698 255.59,-694.5 255.59,-701.5"/>
</g>
<!-- b82c4469&#45;4ccb&#45;4111&#45;8135&#45;f79ffbaeb83c -->
<g id="node36" class="node">
<title>b82c4469&#45;4ccb&#45;4111&#45;8135&#45;f79ffbaeb83c</title>
<polygon fill="#ffffff" stroke="#d3d3d3" points="27.5,-610 27.5,-656 210.5,-656 210.5,-610 27.5,-610"/>
<text text-anchor="start" x="35.5" y="-640.8" font-family="Times,serif" font-size="14.00">ConfigMap</text>
<polyline fill="none" stroke="#d3d3d3" points="27.5,-633 210.5,-633 "/>
<text text-anchor="start" x="35.5" y="-617.8" font-family="Times,serif" font-size="14.00">grafana&#45;dashboard&#45;provisioner</text>
</g>
<!-- f737c66e&#45;9672&#45;bbf7&#45;0895&#45;4610c7466d00 -->
<g id="node53" class="node">
<title>f737c66e&#45;9672&#45;bbf7&#45;0895&#45;4610c7466d00</title>
<polygon fill="#ffffff" stroke="#d3d3d3" points="536.5,-1325 536.5,-1371 648.5,-1371 648.5,-1325 536.5,-1325"/>
<text text-anchor="start" x="544.5" y="-1355.8" font-family="Times,serif" font-size="14.00">Container</text>
<polyline fill="none" stroke="#d3d3d3" points="536.5,-1348 648.5,-1348 "/>
<text text-anchor="start" x="544.5" y="-1332.8" font-family="Times,serif" font-size="14.00">telegraf&#45;speedtest</text>
</g>
<!-- bb7f1001&#45;3c90&#45;4c4a&#45;94e4&#45;23c5ea2f0206&#45;&gt;f737c66e&#45;9672&#45;bbf7&#45;0895&#45;4610c7466d00 -->
<g id="edge22" class="edge">
<title>bb7f1001&#45;3c90&#45;4c4a&#45;94e4&#45;23c5ea2f0206&#45;&gt;f737c66e&#45;9672&#45;bbf7&#45;0895&#45;4610c7466d00</title>
<path fill="none" stroke="#4284f3" d="M470.17,-1348C489.34,-1348 508.72,-1348 526.21,-1348"/>
<polygon fill="#4284f3" stroke="#4284f3" points="526.27,-1351.5 536.27,-1348 526.27,-1344.5 526.27,-1351.5"/>
</g>
<!-- bb877bad&#45;242a&#45;4f9f&#45;aa20&#45;b8220ec6cc73 -->
<g id="node38" class="node">
<title>bb877bad&#45;242a&#45;4f9f&#45;aa20&#45;b8220ec6cc73</title>
<polygon fill="#ffffff" stroke="#d3d3d3" points="64,-545 64,-591 174,-591 174,-545 64,-545"/>
<text text-anchor="start" x="72" y="-575.8" font-family="Times,serif" font-size="14.00">CronJob</text>
<polyline fill="none" stroke="#d3d3d3" points="64,-568 174,-568 "/>
<text text-anchor="start" x="72" y="-552.8" font-family="Times,serif" font-size="14.00">telefraf&#45;speedtest</text>
</g>
<!-- cd115076&#45;b1ca&#45;485f&#45;8fd2&#45;440d2c4221e1 -->
<g id="node39" class="node">
<title>cd115076&#45;b1ca&#45;485f&#45;8fd2&#45;440d2c4221e1</title>
<polygon fill="#ffffff" stroke="#d3d3d3" points="28,-480 28,-526 210,-526 210,-480 28,-480"/>
<text text-anchor="start" x="36" y="-510.8" font-family="Times,serif" font-size="14.00">Job</text>
<polyline fill="none" stroke="#d3d3d3" points="28,-503 210,-503 "/>
<text text-anchor="start" x="36" y="-487.8" font-family="Times,serif" font-size="14.00">telefraf&#45;speedtest&#45;1603552800</text>
</g>
<!-- dddc3eb3&#45;d8e6&#45;47a6&#45;a991&#45;eefbdb9cd2bb -->
<g id="node43" class="node">
<title>dddc3eb3&#45;d8e6&#45;47a6&#45;a991&#45;eefbdb9cd2bb</title>
<polygon fill="#ffffff" stroke="#d3d3d3" points="253.5,-545 253.5,-591 466.5,-591 466.5,-545 253.5,-545"/>
<text text-anchor="start" x="261.5" y="-575.8" font-family="Times,serif" font-size="14.00">Pod</text>
<polyline fill="none" stroke="#d3d3d3" points="253.5,-568 466.5,-568 "/>
<text text-anchor="start" x="261.5" y="-552.8" font-family="Times,serif" font-size="14.00">telefraf&#45;speedtest&#45;1603552800&#45;tz9vt</text>
</g>
<!-- cd115076&#45;b1ca&#45;485f&#45;8fd2&#45;440d2c4221e1&#45;&gt;dddc3eb3&#45;d8e6&#45;47a6&#45;a991&#45;eefbdb9cd2bb -->
<g id="edge23" class="edge">
<title>cd115076&#45;b1ca&#45;485f&#45;8fd2&#45;440d2c4221e1&#45;&gt;dddc3eb3&#45;d8e6&#45;47a6&#45;a991&#45;eefbdb9cd2bb</title>
<path fill="none" stroke="#4284f3" d="M204.6,-526.01C223.9,-531.26 244.53,-536.87 264.22,-542.22"/>
<polygon fill="#4284f3" stroke="#4284f3" points="263.54,-545.67 274.11,-544.91 265.38,-538.91 263.54,-545.67"/>
</g>
<!-- cd88c9c5&#45;70bf&#45;4287&#45;8b28&#45;7c0147076ed8&#45;&gt;3465d92a&#45;ab01&#45;6ac0&#45;b3dd&#45;4aa8384263d9 -->
<g id="edge24" class="edge">
<title>cd88c9c5&#45;70bf&#45;4287&#45;8b28&#45;7c0147076ed8&#45;&gt;3465d92a&#45;ab01&#45;6ac0&#45;b3dd&#45;4aa8384263d9</title>
<path fill="none" stroke="#4284f3" d="M679.3,-243C690.57,-243 701.73,-243 711.91,-243"/>
<polygon fill="#4284f3" stroke="#4284f3" points="712.14,-246.5 722.14,-243 712.14,-239.5 712.14,-246.5"/>
</g>
<!-- e288e504&#45;a4cd&#45;d201&#45;7b5d&#45;e2eab62ebb22 -->
<g id="node47" class="node">
<title>e288e504&#45;a4cd&#45;d201&#45;7b5d&#45;e2eab62ebb22</title>
<polygon fill="#ffffff" stroke="#d3d3d3" points="536.5,-1130 536.5,-1176 648.5,-1176 648.5,-1130 536.5,-1130"/>
<text text-anchor="start" x="544.5" y="-1160.8" font-family="Times,serif" font-size="14.00">Container</text>
<polyline fill="none" stroke="#d3d3d3" points="536.5,-1153 648.5,-1153 "/>
<text text-anchor="start" x="544.5" y="-1137.8" font-family="Times,serif" font-size="14.00">telegraf&#45;speedtest</text>
</g>
<!-- d00db8a7&#45;f362&#45;4b9c&#45;bb80&#45;d7f82ab60771&#45;&gt;e288e504&#45;a4cd&#45;d201&#45;7b5d&#45;e2eab62ebb22 -->
<g id="edge25" class="edge">
<title>d00db8a7&#45;f362&#45;4b9c&#45;bb80&#45;d7f82ab60771&#45;&gt;e288e504&#45;a4cd&#45;d201&#45;7b5d&#45;e2eab62ebb22</title>
<path fill="none" stroke="#4284f3" d="M468.15,-1153C488,-1153 508.17,-1153 526.29,-1153"/>
<polygon fill="#4284f3" stroke="#4284f3" points="526.41,-1156.5 536.41,-1153 526.41,-1149.5 526.41,-1156.5"/>
</g>
<!-- dddc3eb3&#45;d8e6&#45;47a6&#45;a991&#45;eefbdb9cd2bb&#45;&gt;94f3661f&#45;f0c2&#45;7e80&#45;5277&#45;df25c5d6bbd3 -->
<g id="edge26" class="edge">
<title>dddc3eb3&#45;d8e6&#45;47a6&#45;a991&#45;eefbdb9cd2bb&#45;&gt;94f3661f&#45;f0c2&#45;7e80&#45;5277&#45;df25c5d6bbd3</title>
<path fill="none" stroke="#4284f3" d="M466.81,-568C487.08,-568 507.74,-568 526.26,-568"/>
<polygon fill="#4284f3" stroke="#4284f3" points="526.32,-571.5 536.32,-568 526.32,-564.5 526.32,-571.5"/>
</g>
<!-- e062a851&#45;e054&#45;4cc5&#45;ab5e&#45;cfebd5a5ee57 -->
<g id="node44" class="node">
<title>e062a851&#45;e054&#45;4cc5&#45;ab5e&#45;cfebd5a5ee57</title>
<polygon fill="#ffffff" stroke="#d3d3d3" points="51,-415 51,-461 187,-461 187,-415 51,-415"/>
<text text-anchor="start" x="59" y="-445.8" font-family="Times,serif" font-size="14.00">Secret</text>
<polyline fill="none" stroke="#d3d3d3" points="51,-438 187,-438 "/>
<text text-anchor="start" x="59" y="-422.8" font-family="Times,serif" font-size="14.00">isp&#45;checker&#45;secrets&#45;ro</text>
</g>
<!-- e2883fcc&#45;99f2&#45;4d9b&#45;815b&#45;b28e22c7de51 -->
<g id="node46" class="node">
<title>e2883fcc&#45;99f2&#45;4d9b&#45;815b&#45;b28e22c7de51</title>
<polygon fill="#ffffff" stroke="#d3d3d3" points="57,-350 57,-396 181,-396 181,-350 57,-350"/>
<text text-anchor="start" x="65" y="-380.8" font-family="Times,serif" font-size="14.00">Secret</text>
<polyline fill="none" stroke="#d3d3d3" points="57,-373 181,-373 "/>
<text text-anchor="start" x="65" y="-357.8" font-family="Times,serif" font-size="14.00">default&#45;token&#45;6njx8</text>
</g>
<!-- e4fbd174&#45;c479&#45;4aad&#45;ab6d&#45;296923abe677 -->
<g id="node48" class="node">
<title>e4fbd174&#45;c479&#45;4aad&#45;ab6d&#45;296923abe677</title>
<polygon fill="#ffffff" stroke="#d3d3d3" points="49.5,-285 49.5,-331 188.5,-331 188.5,-285 49.5,-285"/>
<text text-anchor="start" x="57.5" y="-315.8" font-family="Times,serif" font-size="14.00">Secret</text>
<polyline fill="none" stroke="#d3d3d3" points="49.5,-308 188.5,-308 "/>
<text text-anchor="start" x="57.5" y="-292.8" font-family="Times,serif" font-size="14.00">isp&#45;checker&#45;secrets&#45;rw</text>
</g>
<!-- e7ed50a0&#45;3f0f&#45;46ad&#45;87b3&#45;e5560dd7b540&#45;&gt;4c69b87b&#45;f38c&#45;97bd&#45;bf89&#45;86f67b5fae91 -->
<g id="edge27" class="edge">
<title>e7ed50a0&#45;3f0f&#45;46ad&#45;87b3&#45;e5560dd7b540&#45;&gt;4c69b87b&#45;f38c&#45;97bd&#45;bf89&#45;86f67b5fae91</title>
<path fill="none" stroke="#4284f3" d="M451.11,-1023C481.76,-1023 514.91,-1023 541.3,-1023"/>
<polygon fill="#4284f3" stroke="#4284f3" points="541.42,-1026.5 551.42,-1023 541.42,-1019.5 541.42,-1026.5"/>
</g>
<!-- e87be3ff&#45;463b&#45;466b&#45;9068&#45;7620af362375 -->
<g id="node50" class="node">
<title>e87be3ff&#45;463b&#45;466b&#45;9068&#45;7620af362375</title>
<polygon fill="#ffffff" stroke="#d3d3d3" points="77,-220 77,-266 161,-266 161,-220 77,-220"/>
<text text-anchor="start" x="85" y="-250.8" font-family="Times,serif" font-size="14.00">Deployment</text>
<polyline fill="none" stroke="#d3d3d3" points="77,-243 161,-243 "/>
<text text-anchor="start" x="85" y="-227.8" font-family="Times,serif" font-size="14.00">influxdb</text>
</g>
<!-- f21fcd94&#45;36e5&#45;4bd3&#45;8a41&#45;85a821c6be9f -->
<g id="node51" class="node">
<title>f21fcd94&#45;36e5&#45;4bd3&#45;8a41&#45;85a821c6be9f</title>
<polygon fill="#ffffff" stroke="#d3d3d3" points="79,-25 79,-71 159,-71 159,-25 79,-25"/>
<text text-anchor="start" x="87" y="-55.8" font-family="Times,serif" font-size="14.00">DaemonSet</text>
<polyline fill="none" stroke="#d3d3d3" points="79,-48 159,-48 "/>
<text text-anchor="start" x="87" y="-32.8" font-family="Times,serif" font-size="14.00">telegraf</text>
</g>
<!-- f21fcd94&#45;36e5&#45;4bd3&#45;8a41&#45;85a821c6be9f&#45;&gt;03bb06ee&#45;3478&#45;47de&#45;a239&#45;4ae5f8b31f08 -->
<g id="edge29" class="edge">
<title>f21fcd94&#45;36e5&#45;4bd3&#45;8a41&#45;85a821c6be9f&#45;&gt;03bb06ee&#45;3478&#45;47de&#45;a239&#45;4ae5f8b31f08</title>
<path fill="none" stroke="#4284f3" d="M159.4,-54.57C177.61,-59.21 198.57,-67.01 214,-80 239.56,-101.52 223.99,-125.03 250,-146 265.49,-158.49 285.69,-166.1 304.49,-170.74"/>
<polygon fill="#4284f3" stroke="#4284f3" points="303.94,-174.21 314.46,-172.97 305.46,-167.37 303.94,-174.21"/>
</g>
<!-- f21fcd94&#45;36e5&#45;4bd3&#45;8a41&#45;85a821c6be9f&#45;&gt;4d34a878&#45;8dd1&#45;4eb5&#45;a7dc&#45;a3e72cbedbe9 -->
<g id="edge28" class="edge">
<title>f21fcd94&#45;36e5&#45;4bd3&#45;8a41&#45;85a821c6be9f&#45;&gt;4d34a878&#45;8dd1&#45;4eb5&#45;a7dc&#45;a3e72cbedbe9</title>
<path fill="none" stroke="#4284f3" d="M159.2,-48C197.94,-48 257.64,-48 301.7,-48"/>
<polygon fill="#4284f3" stroke="#4284f3" points="301.98,-51.5 311.98,-48 301.98,-44.5 301.98,-51.5"/>
</g>
<!-- f21fcd94&#45;36e5&#45;4bd3&#45;8a41&#45;85a821c6be9f&#45;&gt;53c3d993&#45;7c0f&#45;4c67&#45;bc5c&#45;9a831e380156 -->
<g id="edge30" class="edge">
<title>f21fcd94&#45;36e5&#45;4bd3&#45;8a41&#45;85a821c6be9f&#45;&gt;53c3d993&#45;7c0f&#45;4c67&#45;bc5c&#45;9a831e380156</title>
<path fill="none" stroke="#4284f3" d="M159.2,-58.66C199.09,-69.51 261.2,-86.4 305.57,-98.47"/>
<polygon fill="#4284f3" stroke="#4284f3" points="304.75,-101.87 315.32,-101.12 306.59,-95.12 304.75,-101.87"/>
</g>
<!-- f2e5ddf6&#45;31f9&#45;4d00&#45;ab26&#45;7873c2db3581 -->
<g id="node52" class="node">
<title>f2e5ddf6&#45;31f9&#45;4d00&#45;ab26&#45;7873c2db3581</title>
<polygon fill="#ffffff" stroke="#d3d3d3" points="79,-155 79,-201 159,-201 159,-155 79,-155"/>
<text text-anchor="start" x="87" y="-185.8" font-family="Times,serif" font-size="14.00">Service</text>
<polyline fill="none" stroke="#d3d3d3" points="79,-178 159,-178 "/>
<text text-anchor="start" x="87" y="-162.8" font-family="Times,serif" font-size="14.00">grafana&#45;svc</text>
</g>
<!-- f2e5ddf6&#45;31f9&#45;4d00&#45;ab26&#45;7873c2db3581&#45;&gt;257231a5&#45;5bff&#45;4d64&#45;98df&#45;e9ac70ff1219 -->
<g id="edge32" class="edge">
<title>f2e5ddf6&#45;31f9&#45;4d00&#45;ab26&#45;7873c2db3581&#45;&gt;257231a5&#45;5bff&#45;4d64&#45;98df&#45;e9ac70ff1219</title>
<path fill="none" stroke="#4284f3" d="M159.02,-182.48C178.29,-186.72 200.28,-194.97 214,-211 271.3,-277.96 190.97,-340.56 250,-406 265.17,-422.81 288.65,-430.98 309.95,-434.88"/>
<polygon fill="#4284f3" stroke="#4284f3" points="309.44,-438.34 319.86,-436.43 310.52,-431.43 309.44,-438.34"/>
</g>
<!-- f2e5ddf6&#45;31f9&#45;4d00&#45;ab26&#45;7873c2db3581&#45;&gt;57585d76&#45;cf32&#45;47f8&#45;84d0&#45;4d0f857ffb31 -->
<g id="edge31" class="edge">
<title>f2e5ddf6&#45;31f9&#45;4d00&#45;ab26&#45;7873c2db3581&#45;&gt;57585d76&#45;cf32&#45;47f8&#45;84d0&#45;4d0f857ffb31</title>
<path fill="none" stroke="#4284f3" d="M159.4,-183.21C178.29,-187.64 199.83,-195.84 214,-211 254.94,-254.8 207.94,-298.28 250,-341 261.69,-352.87 277.53,-360.39 293.51,-365.14"/>
<polygon fill="#4284f3" stroke="#4284f3" points="292.88,-368.59 303.45,-367.75 294.67,-361.82 292.88,-368.59"/>
</g>
<!-- fe751f6d&#45;5d0b&#45;4730&#45;936d&#45;9292d40696e3 -->
<g id="node54" class="node">
<title>fe751f6d&#45;5d0b&#45;4730&#45;936d&#45;9292d40696e3</title>
<polygon fill="#ffffff" stroke="#d3d3d3" points="77,-90 77,-136 161,-136 161,-90 77,-90"/>
<text text-anchor="start" x="85" y="-120.8" font-family="Times,serif" font-size="14.00">Service</text>
<polyline fill="none" stroke="#d3d3d3" points="77,-113 161,-113 "/>
<text text-anchor="start" x="85" y="-97.8" font-family="Times,serif" font-size="14.00">influxdb&#45;svc</text>
</g>
<!-- fe751f6d&#45;5d0b&#45;4730&#45;936d&#45;9292d40696e3&#45;&gt;1d221322&#45;0b76&#45;4aa0&#45;9b18&#45;184e78987b56 -->
<g id="edge33" class="edge">
<title>fe751f6d&#45;5d0b&#45;4730&#45;936d&#45;9292d40696e3&#45;&gt;1d221322&#45;0b76&#45;4aa0&#45;9b18&#45;184e78987b56</title>
<path fill="none" stroke="#4284f3" d="M161.25,-120.58C179,-125.48 199.07,-133.39 214,-146 239.23,-167.31 224.22,-190.36 250,-211 266.53,-224.24 288.36,-232 308.15,-236.55"/>
<polygon fill="#4284f3" stroke="#4284f3" points="307.46,-239.98 317.96,-238.59 308.89,-233.13 307.46,-239.98"/>
</g>
</g>
</svg>
