<?xml version="1.0" encoding="UTF-8" standalone="no"?>
<!DOCTYPE svg PUBLIC "-//W3C//DTD SVG 1.1//EN"
 "http://www.w3.org/Graphics/SVG/1.1/DTD/svg11.dtd">
<!-- Generated by graphviz version 2.44.1 (20200629.0846)
 -->
<!-- Pages: 1 -->
<svg width="830pt" height="1580pt"
 viewBox="0.00 0.00 830.00 1580.00" xmlns="http://www.w3.org/2000/svg" xmlns:xlink="http://www.w3.org/1999/xlink">
<g id="graph0" class="graph" transform="scale(1 1) rotate(0) translate(4 1576)">
<polygon fill="#f6f6f6" stroke="transparent" points="-4,4 -4,-1576 826,-1576 826,4 -4,4"/>
<g id="clust1" class="cluster">
<title>cluster_192.168.0.200</title>
<polygon fill="#eceff1" stroke="black" points="8,-8 8,-1564 814,-1564 814,-8 8,-8"/>
<text text-anchor="middle" x="411" y="-1548.8" font-family="Times,serif" font-size="14.00">192.168.0.200</text>
</g>
<g id="clust2" class="cluster">
<title>cluster_namespace_monitoring</title>
<polygon fill="#e3f2fd" stroke="black" points="16,-16 16,-1533 806,-1533 806,-16 16,-16"/>
<text text-anchor="middle" x="411" y="-1517.8" font-family="Times,serif" font-size="14.00">monitoring</text>
</g>
<!-- 03bb06ee&#45;3478&#45;47de&#45;a239&#45;4ae5f8b31f08 -->
<g id="node1" class="node">
<title>03bb06ee&#45;3478&#45;47de&#45;a239&#45;4ae5f8b31f08</title>
<polygon fill="#ffffff" stroke="#d3d3d3" points="313.5,-285 313.5,-331 404.5,-331 404.5,-285 313.5,-285"/>
<text text-anchor="start" x="321.5" y="-315.8" font-family="Times,serif" font-size="14.00">Pod</text>
<polyline fill="none" stroke="#d3d3d3" points="313.5,-308 404.5,-308 "/>
<text text-anchor="start" x="321.5" y="-292.8" font-family="Times,serif" font-size="14.00">telegraf&#45;dbsct</text>
</g>
<!-- 7ee48df0&#45;1e53&#45;2f28&#45;634a&#45;283b31b48598 -->
<g id="node23" class="node">
<title>7ee48df0&#45;1e53&#45;2f28&#45;634a&#45;283b31b48598</title>
<polygon fill="#ffffff" stroke="#d3d3d3" points="555.5,-285 555.5,-331 625.5,-331 625.5,-285 555.5,-285"/>
<text text-anchor="start" x="563.5" y="-315.8" font-family="Times,serif" font-size="14.00">Container</text>
<polyline fill="none" stroke="#d3d3d3" points="555.5,-308 625.5,-308 "/>
<text text-anchor="start" x="563.5" y="-292.8" font-family="Times,serif" font-size="14.00">telegraf</text>
</g>
<!-- 03bb06ee&#45;3478&#45;47de&#45;a239&#45;4ae5f8b31f08&#45;&gt;7ee48df0&#45;1e53&#45;2f28&#45;634a&#45;283b31b48598 -->
<g id="edge1" class="edge">
<title>03bb06ee&#45;3478&#45;47de&#45;a239&#45;4ae5f8b31f08&#45;&gt;7ee48df0&#45;1e53&#45;2f28&#45;634a&#45;283b31b48598</title>
<path fill="none" stroke="#4284f3" d="M404.52,-308C445.05,-308 504.58,-308 545.08,-308"/>
<polygon fill="#4284f3" stroke="#4284f3" points="545.19,-311.5 555.19,-308 545.19,-304.5 545.19,-311.5"/>
</g>
<!-- 0c9eed70&#45;f8b2&#45;408a&#45;a70a&#45;865da103a5ff -->
<g id="node2" class="node">
<title>0c9eed70&#45;f8b2&#45;408a&#45;a70a&#45;865da103a5ff</title>
<polygon fill="#ffffff" stroke="#d3d3d3" points="79,-1455 79,-1501 159,-1501 159,-1455 79,-1455"/>
<text text-anchor="start" x="87" y="-1485.8" font-family="Times,serif" font-size="14.00">CronJob</text>
<polyline fill="none" stroke="#d3d3d3" points="79,-1478 159,-1478 "/>
<text text-anchor="start" x="87" y="-1462.8" font-family="Times,serif" font-size="14.00">telefraf&#45;mtr</text>
</g>
<!-- 0ddc1c7d&#45;49c2&#45;4d22&#45;b08f&#45;f840d61032c1 -->
<g id="node3" class="node">
<title>0ddc1c7d&#45;49c2&#45;4d22&#45;b08f&#45;f840d61032c1</title>
<polygon fill="#ffffff" stroke="#d3d3d3" points="295,-610 295,-656 423,-656 423,-610 295,-610"/>
<text text-anchor="start" x="303" y="-640.8" font-family="Times,serif" font-size="14.00">ReplicaSet</text>
<polyline fill="none" stroke="#d3d3d3" points="295,-633 423,-633 "/>
<text text-anchor="start" x="303" y="-617.8" font-family="Times,serif" font-size="14.00">grafana&#45;56858b8cc8</text>
</g>
<!-- 9e72b254&#45;4954&#45;41ad&#45;962d&#45;7ab0b90d6a30 -->
<g id="node31" class="node">
<title>9e72b254&#45;4954&#45;41ad&#45;962d&#45;7ab0b90d6a30</title>
<polygon fill="#ffffff" stroke="#d3d3d3" points="505.5,-610 505.5,-656 675.5,-656 675.5,-610 505.5,-610"/>
<text text-anchor="start" x="513.5" y="-640.8" font-family="Times,serif" font-size="14.00">Pod</text>
<polyline fill="none" stroke="#d3d3d3" points="505.5,-633 675.5,-633 "/>
<text text-anchor="start" x="513.5" y="-617.8" font-family="Times,serif" font-size="14.00">grafana&#45;56858b8cc8&#45;mpph6</text>
</g>
<!-- 0ddc1c7d&#45;49c2&#45;4d22&#45;b08f&#45;f840d61032c1&#45;&gt;9e72b254&#45;4954&#45;41ad&#45;962d&#45;7ab0b90d6a30 -->
<g id="edge2" class="edge">
<title>0ddc1c7d&#45;49c2&#45;4d22&#45;b08f&#45;f840d61032c1&#45;&gt;9e72b254&#45;4954&#45;41ad&#45;962d&#45;7ab0b90d6a30</title>
<path fill="none" stroke="#4284f3" d="M423.02,-633C445.19,-633 470.63,-633 494.84,-633"/>
<polygon fill="#4284f3" stroke="#4284f3" points="495.12,-636.5 505.12,-633 495.12,-629.5 495.12,-636.5"/>
</g>
<!-- 1d221322&#45;0b76&#45;4aa0&#45;9b18&#45;184e78987b56 -->
<g id="node4" class="node">
<title>1d221322&#45;0b76&#45;4aa0&#45;9b18&#45;184e78987b56</title>
<polygon fill="#ffffff" stroke="#d3d3d3" points="317,-350 317,-396 401,-396 401,-350 317,-350"/>
<text text-anchor="start" x="325" y="-380.8" font-family="Times,serif" font-size="14.00">Endpoints</text>
<polyline fill="none" stroke="#d3d3d3" points="317,-373 401,-373 "/>
<text text-anchor="start" x="325" y="-357.8" font-family="Times,serif" font-size="14.00">influxdb&#45;svc</text>
</g>
<!-- cd88c9c5&#45;70bf&#45;4287&#45;8b28&#45;7c0147076ed8 -->
<g id="node42" class="node">
<title>cd88c9c5&#45;70bf&#45;4287&#45;8b28&#45;7c0147076ed8</title>
<polygon fill="#ffffff" stroke="#d3d3d3" points="504,-350 504,-396 677,-396 677,-350 504,-350"/>
<text text-anchor="start" x="512" y="-380.8" font-family="Times,serif" font-size="14.00">Pod</text>
<polyline fill="none" stroke="#d3d3d3" points="504,-373 677,-373 "/>
<text text-anchor="start" x="512" y="-357.8" font-family="Times,serif" font-size="14.00">influxdb&#45;5d54bb97dc&#45;hwbcb</text>
</g>
<!-- 1d221322&#45;0b76&#45;4aa0&#45;9b18&#45;184e78987b56&#45;&gt;cd88c9c5&#45;70bf&#45;4287&#45;8b28&#45;7c0147076ed8 -->
<g id="edge3" class="edge">
<title>1d221322&#45;0b76&#45;4aa0&#45;9b18&#45;184e78987b56&#45;&gt;cd88c9c5&#45;70bf&#45;4287&#45;8b28&#45;7c0147076ed8</title>
<path fill="none" stroke="#4284f3" d="M401.03,-373C426.74,-373 461.01,-373 493.28,-373"/>
<polygon fill="#4284f3" stroke="#4284f3" points="493.67,-376.5 503.67,-373 493.67,-369.5 493.67,-376.5"/>
</g>
<!-- 22a5c89c&#45;5015&#45;bcf1&#45;59ac&#45;74bb664198ba -->
<g id="node5" class="node">
<title>22a5c89c&#45;5015&#45;bcf1&#45;59ac&#45;74bb664198ba</title>
<polygon fill="#ffffff" stroke="#d3d3d3" points="534.5,-25 534.5,-71 646.5,-71 646.5,-25 534.5,-25"/>
<text text-anchor="start" x="542.5" y="-55.8" font-family="Times,serif" font-size="14.00">Container</text>
<polyline fill="none" stroke="#d3d3d3" points="534.5,-48 646.5,-48 "/>
<text text-anchor="start" x="542.5" y="-32.8" font-family="Times,serif" font-size="14.00">telegraf&#45;speedtest</text>
</g>
<!-- 257231a5&#45;5bff&#45;4d64&#45;98df&#45;e9ac70ff1219 -->
<g id="node6" class="node">
<title>257231a5&#45;5bff&#45;4d64&#45;98df&#45;e9ac70ff1219</title>
<polygon fill="#ffffff" stroke="#d3d3d3" points="319,-545 319,-591 399,-591 399,-545 319,-545"/>
<text text-anchor="start" x="327" y="-575.8" font-family="Times,serif" font-size="14.00">Endpoints</text>
<polyline fill="none" stroke="#d3d3d3" points="319,-568 399,-568 "/>
<text text-anchor="start" x="327" y="-552.8" font-family="Times,serif" font-size="14.00">grafana&#45;svc</text>
</g>
<!-- 257231a5&#45;5bff&#45;4d64&#45;98df&#45;e9ac70ff1219&#45;&gt;9e72b254&#45;4954&#45;41ad&#45;962d&#45;7ab0b90d6a30 -->
<g id="edge4" class="edge">
<title>257231a5&#45;5bff&#45;4d64&#45;98df&#45;e9ac70ff1219&#45;&gt;9e72b254&#45;4954&#45;41ad&#45;962d&#45;7ab0b90d6a30</title>
<path fill="none" stroke="#4284f3" d="M399.19,-579.1C426.46,-586.82 463.97,-597.45 498.48,-607.22"/>
<polygon fill="#4284f3" stroke="#4284f3" points="497.55,-610.6 508.13,-609.95 499.46,-603.86 497.55,-610.6"/>
</g>
<!-- 2738d264&#45;549b&#45;c4e7&#45;4b21&#45;b12830dc5064 -->
<g id="node7" class="node">
<title>2738d264&#45;549b&#45;c4e7&#45;4b21&#45;b12830dc5064</title>
<polygon fill="#ffffff" stroke="#d3d3d3" points="555.5,-155 555.5,-201 625.5,-201 625.5,-155 555.5,-155"/>
<text text-anchor="start" x="563.5" y="-185.8" font-family="Times,serif" font-size="14.00">Container</text>
<polyline fill="none" stroke="#d3d3d3" points="555.5,-178 625.5,-178 "/>
<text text-anchor="start" x="563.5" y="-162.8" font-family="Times,serif" font-size="14.00">telegraf</text>
</g>
<!-- 3403f7e1&#45;58c9&#45;fd61&#45;519f&#45;236620837808 -->
<g id="node8" class="node">
<title>3403f7e1&#45;58c9&#45;fd61&#45;519f&#45;236620837808</title>
<polygon fill="#ffffff" stroke="#d3d3d3" points="713,-415 713,-461 798,-461 798,-415 713,-415"/>
<text text-anchor="start" x="721" y="-445.8" font-family="Times,serif" font-size="14.00">Container</text>
<polyline fill="none" stroke="#d3d3d3" points="713,-438 798,-438 "/>
<text text-anchor="start" x="721" y="-422.8" font-family="Times,serif" font-size="14.00">lb&#45;port&#45;3000</text>
</g>
<!-- 3465d92a&#45;ab01&#45;6ac0&#45;b3dd&#45;4aa8384263d9 -->
<g id="node9" class="node">
<title>3465d92a&#45;ab01&#45;6ac0&#45;b3dd&#45;4aa8384263d9</title>
<polygon fill="#ffffff" stroke="#d3d3d3" points="720.5,-350 720.5,-396 790.5,-396 790.5,-350 720.5,-350"/>
<text text-anchor="start" x="728.5" y="-380.8" font-family="Times,serif" font-size="14.00">Container</text>
<polyline fill="none" stroke="#d3d3d3" points="720.5,-373 790.5,-373 "/>
<text text-anchor="start" x="728.5" y="-357.8" font-family="Times,serif" font-size="14.00">influxdb</text>
</g>
<!-- 425dfdfc&#45;62fa&#45;4c78&#45;be84&#45;c16c2afaa22f -->
<g id="node10" class="node">
<title>425dfdfc&#45;62fa&#45;4c78&#45;be84&#45;c16c2afaa22f</title>
<polygon fill="#ffffff" stroke="#d3d3d3" points="516,-480 516,-526 665,-526 665,-480 516,-480"/>
<text text-anchor="start" x="524" y="-510.8" font-family="Times,serif" font-size="14.00">Pod</text>
<polyline fill="none" stroke="#d3d3d3" points="516,-503 665,-503 "/>
<text text-anchor="start" x="524" y="-487.8" font-family="Times,serif" font-size="14.00">svclb&#45;grafana&#45;svc&#45;vsvlw</text>
</g>
<!-- d46f328c&#45;1fda&#45;055c&#45;7df9&#45;30dd6394a8b8 -->
<g id="node44" class="node">
<title>d46f328c&#45;1fda&#45;055c&#45;7df9&#45;30dd6394a8b8</title>
<polygon fill="#ffffff" stroke="#d3d3d3" points="713,-480 713,-526 798,-526 798,-480 713,-480"/>
<text text-anchor="start" x="721" y="-510.8" font-family="Times,serif" font-size="14.00">Container</text>
<polyline fill="none" stroke="#d3d3d3" points="713,-503 798,-503 "/>
<text text-anchor="start" x="721" y="-487.8" font-family="Times,serif" font-size="14.00">lb&#45;port&#45;3000</text>
</g>
<!-- 425dfdfc&#45;62fa&#45;4c78&#45;be84&#45;c16c2afaa22f&#45;&gt;d46f328c&#45;1fda&#45;055c&#45;7df9&#45;30dd6394a8b8 -->
<g id="edge5" class="edge">
<title>425dfdfc&#45;62fa&#45;4c78&#45;be84&#45;c16c2afaa22f&#45;&gt;d46f328c&#45;1fda&#45;055c&#45;7df9&#45;30dd6394a8b8</title>
<path fill="none" stroke="#4284f3" d="M665.37,-503C678.01,-503 690.89,-503 702.8,-503"/>
<polygon fill="#4284f3" stroke="#4284f3" points="702.97,-506.5 712.97,-503 702.97,-499.5 702.97,-506.5"/>
</g>
<!-- 4c69b87b&#45;f38c&#45;97bd&#45;bf89&#45;86f67b5fae91 -->
<g id="node11" class="node">
<title>4c69b87b&#45;f38c&#45;97bd&#45;bf89&#45;86f67b5fae91</title>
<polygon fill="#ffffff" stroke="#d3d3d3" points="549.5,-1260 549.5,-1306 631.5,-1306 631.5,-1260 549.5,-1260"/>
<text text-anchor="start" x="557.5" y="-1290.8" font-family="Times,serif" font-size="14.00">Container</text>
<polyline fill="none" stroke="#d3d3d3" points="549.5,-1283 631.5,-1283 "/>
<text text-anchor="start" x="557.5" y="-1267.8" font-family="Times,serif" font-size="14.00">telegraf&#45;mtr</text>
</g>
<!-- 4d34a878&#45;8dd1&#45;4eb5&#45;a7dc&#45;a3e72cbedbe9 -->
<g id="node12" class="node">
<title>4d34a878&#45;8dd1&#45;4eb5&#45;a7dc&#45;a3e72cbedbe9</title>
<polygon fill="#ffffff" stroke="#d3d3d3" points="311,-155 311,-201 407,-201 407,-155 311,-155"/>
<text text-anchor="start" x="319" y="-185.8" font-family="Times,serif" font-size="14.00">Pod</text>
<polyline fill="none" stroke="#d3d3d3" points="311,-178 407,-178 "/>
<text text-anchor="start" x="319" y="-162.8" font-family="Times,serif" font-size="14.00">telegraf&#45;bpbng</text>
</g>
<!-- 4d34a878&#45;8dd1&#45;4eb5&#45;a7dc&#45;a3e72cbedbe9&#45;&gt;2738d264&#45;549b&#45;c4e7&#45;4b21&#45;b12830dc5064 -->
<g id="edge6" class="edge">
<title>4d34a878&#45;8dd1&#45;4eb5&#45;a7dc&#45;a3e72cbedbe9&#45;&gt;2738d264&#45;549b&#45;c4e7&#45;4b21&#45;b12830dc5064</title>
<path fill="none" stroke="#4284f3" d="M407.27,-178C447.75,-178 505.59,-178 545.18,-178"/>
<polygon fill="#4284f3" stroke="#4284f3" points="545.34,-181.5 555.34,-178 545.34,-174.5 545.34,-181.5"/>
</g>
<!-- 4e40c66c&#45;500e&#45;4221&#45;abb8&#45;d2e4b9586cc7 -->
<g id="node13" class="node">
<title>4e40c66c&#45;500e&#45;4221&#45;abb8&#45;d2e4b9586cc7</title>
<polygon fill="#ffffff" stroke="#d3d3d3" points="28,-1390 28,-1436 210,-1436 210,-1390 28,-1390"/>
<text text-anchor="start" x="36" y="-1420.8" font-family="Times,serif" font-size="14.00">Job</text>
<polyline fill="none" stroke="#d3d3d3" points="28,-1413 210,-1413 "/>
<text text-anchor="start" x="36" y="-1397.8" font-family="Times,serif" font-size="14.00">telefraf&#45;speedtest&#45;1603553400</text>
</g>
<!-- d00db8a7&#45;f362&#45;4b9c&#45;bb80&#45;d7f82ab60771 -->
<g id="node43" class="node">
<title>d00db8a7&#45;f362&#45;4b9c&#45;bb80&#45;d7f82ab60771</title>
<polygon fill="#ffffff" stroke="#d3d3d3" points="251,-1390 251,-1436 467,-1436 467,-1390 251,-1390"/>
<text text-anchor="start" x="259" y="-1420.8" font-family="Times,serif" font-size="14.00">Pod</text>
<polyline fill="none" stroke="#d3d3d3" points="251,-1413 467,-1413 "/>
<text text-anchor="start" x="259" y="-1397.8" font-family="Times,serif" font-size="14.00">telefraf&#45;speedtest&#45;1603553400&#45;dcbjp</text>
</g>
<!-- 4e40c66c&#45;500e&#45;4221&#45;abb8&#45;d2e4b9586cc7&#45;&gt;d00db8a7&#45;f362&#45;4b9c&#45;bb80&#45;d7f82ab60771 -->
<g id="edge7" class="edge">
<title>4e40c66c&#45;500e&#45;4221&#45;abb8&#45;d2e4b9586cc7&#45;&gt;d00db8a7&#45;f362&#45;4b9c&#45;bb80&#45;d7f82ab60771</title>
<path fill="none" stroke="#4284f3" d="M210.32,-1413C220.28,-1413 230.52,-1413 240.75,-1413"/>
<polygon fill="#4284f3" stroke="#4284f3" points="240.97,-1416.5 250.97,-1413 240.97,-1409.5 240.97,-1416.5"/>
</g>
<!-- 53c3d993&#45;7c0f&#45;4c67&#45;bc5c&#45;9a831e380156 -->
<g id="node14" class="node">
<title>53c3d993&#45;7c0f&#45;4c67&#45;bc5c&#45;9a831e380156</title>
<polygon fill="#ffffff" stroke="#d3d3d3" points="314.5,-220 314.5,-266 403.5,-266 403.5,-220 314.5,-220"/>
<text text-anchor="start" x="322.5" y="-250.8" font-family="Times,serif" font-size="14.00">Pod</text>
<polyline fill="none" stroke="#d3d3d3" points="314.5,-243 403.5,-243 "/>
<text text-anchor="start" x="322.5" y="-227.8" font-family="Times,serif" font-size="14.00">telegraf&#45;g2ljs</text>
</g>
<!-- 7428ea6f&#45;16db&#45;7e88&#45;f676&#45;ead77cee627c -->
<g id="node21" class="node">
<title>7428ea6f&#45;16db&#45;7e88&#45;f676&#45;ead77cee627c</title>
<polygon fill="#ffffff" stroke="#d3d3d3" points="555.5,-220 555.5,-266 625.5,-266 625.5,-220 555.5,-220"/>
<text text-anchor="start" x="563.5" y="-250.8" font-family="Times,serif" font-size="14.00">Container</text>
<polyline fill="none" stroke="#d3d3d3" points="555.5,-243 625.5,-243 "/>
<text text-anchor="start" x="563.5" y="-227.8" font-family="Times,serif" font-size="14.00">telegraf</text>
</g>
<!-- 53c3d993&#45;7c0f&#45;4c67&#45;bc5c&#45;9a831e380156&#45;&gt;7428ea6f&#45;16db&#45;7e88&#45;f676&#45;ead77cee627c -->
<g id="edge8" class="edge">
<title>53c3d993&#45;7c0f&#45;4c67&#45;bc5c&#45;9a831e380156&#45;&gt;7428ea6f&#45;16db&#45;7e88&#45;f676&#45;ead77cee627c</title>
<path fill="none" stroke="#4284f3" d="M403.71,-243C444.26,-243 504.34,-243 545.12,-243"/>
<polygon fill="#4284f3" stroke="#4284f3" points="545.3,-246.5 555.3,-243 545.3,-239.5 545.3,-246.5"/>
</g>
<!-- 54ade014&#45;05ab&#45;74b6&#45;dc24&#45;76aa2100c146 -->
<g id="node15" class="node">
<title>54ade014&#45;05ab&#45;74b6&#45;dc24&#45;76aa2100c146</title>
<polygon fill="#ffffff" stroke="#d3d3d3" points="549.5,-90 549.5,-136 631.5,-136 631.5,-90 549.5,-90"/>
<text text-anchor="start" x="557.5" y="-120.8" font-family="Times,serif" font-size="14.00">Container</text>
<polyline fill="none" stroke="#d3d3d3" points="549.5,-113 631.5,-113 "/>
<text text-anchor="start" x="557.5" y="-97.8" font-family="Times,serif" font-size="14.00">telegraf&#45;mtr</text>
</g>
<!-- 54e52f54&#45;9c38&#45;4dc2&#45;b493&#45;4c96c144fbef -->
<g id="node16" class="node">
<title>54e52f54&#45;9c38&#45;4dc2&#45;b493&#45;4c96c144fbef</title>
<polygon fill="#ffffff" stroke="#d3d3d3" points="265,-805 265,-851 453,-851 453,-805 265,-805"/>
<text text-anchor="start" x="273" y="-835.8" font-family="Times,serif" font-size="14.00">Pod</text>
<polyline fill="none" stroke="#d3d3d3" points="265,-828 453,-828 "/>
<text text-anchor="start" x="273" y="-812.8" font-family="Times,serif" font-size="14.00">telefraf&#45;mtr&#45;1603552800&#45;pfh74</text>
</g>
<!-- a5fdb550&#45;74b2&#45;16d8&#45;be44&#45;d3566ab1bcb2 -->
<g id="node33" class="node">
<title>a5fdb550&#45;74b2&#45;16d8&#45;be44&#45;d3566ab1bcb2</title>
<polygon fill="#ffffff" stroke="#d3d3d3" points="549.5,-805 549.5,-851 631.5,-851 631.5,-805 549.5,-805"/>
<text text-anchor="start" x="557.5" y="-835.8" font-family="Times,serif" font-size="14.00">Container</text>
<polyline fill="none" stroke="#d3d3d3" points="549.5,-828 631.5,-828 "/>
<text text-anchor="start" x="557.5" y="-812.8" font-family="Times,serif" font-size="14.00">telegraf&#45;mtr</text>
</g>
<!-- 54e52f54&#45;9c38&#45;4dc2&#45;b493&#45;4c96c144fbef&#45;&gt;a5fdb550&#45;74b2&#45;16d8&#45;be44&#45;d3566ab1bcb2 -->
<g id="edge9" class="edge">
<title>54e52f54&#45;9c38&#45;4dc2&#45;b493&#45;4c96c144fbef&#45;&gt;a5fdb550&#45;74b2&#45;16d8&#45;be44&#45;d3566ab1bcb2</title>
<path fill="none" stroke="#4284f3" d="M453.02,-828C482.5,-828 513.97,-828 539.26,-828"/>
<polygon fill="#4284f3" stroke="#4284f3" points="539.33,-831.5 549.33,-828 539.33,-824.5 539.33,-831.5"/>
</g>
<!-- 57585d76&#45;cf32&#45;47f8&#45;84d0&#45;4d0f857ffb31 -->
<g id="node17" class="node">
<title>57585d76&#45;cf32&#45;47f8&#45;84d0&#45;4d0f857ffb31</title>
<polygon fill="#ffffff" stroke="#d3d3d3" points="302.5,-480 302.5,-526 415.5,-526 415.5,-480 302.5,-480"/>
<text text-anchor="start" x="310.5" y="-510.8" font-family="Times,serif" font-size="14.00">DaemonSet</text>
<polyline fill="none" stroke="#d3d3d3" points="302.5,-503 415.5,-503 "/>
<text text-anchor="start" x="310.5" y="-487.8" font-family="Times,serif" font-size="14.00">svclb&#45;grafana&#45;svc</text>
</g>
<!-- 57585d76&#45;cf32&#45;47f8&#45;84d0&#45;4d0f857ffb31&#45;&gt;425dfdfc&#45;62fa&#45;4c78&#45;be84&#45;c16c2afaa22f -->
<g id="edge12" class="edge">
<title>57585d76&#45;cf32&#45;47f8&#45;84d0&#45;4d0f857ffb31&#45;&gt;425dfdfc&#45;62fa&#45;4c78&#45;be84&#45;c16c2afaa22f</title>
<path fill="none" stroke="#4284f3" d="M415.56,-503C442.61,-503 475.71,-503 505.75,-503"/>
<polygon fill="#4284f3" stroke="#4284f3" points="505.8,-506.5 515.8,-503 505.8,-499.5 505.8,-506.5"/>
</g>
<!-- 8d7ceda2&#45;1e88&#45;43d6&#45;922b&#45;0a2e97641c45 -->
<g id="node26" class="node">
<title>8d7ceda2&#45;1e88&#45;43d6&#45;922b&#45;0a2e97641c45</title>
<polygon fill="#ffffff" stroke="#d3d3d3" points="515,-545 515,-591 666,-591 666,-545 515,-545"/>
<text text-anchor="start" x="523" y="-575.8" font-family="Times,serif" font-size="14.00">Pod</text>
<polyline fill="none" stroke="#d3d3d3" points="515,-568 666,-568 "/>
<text text-anchor="start" x="523" y="-552.8" font-family="Times,serif" font-size="14.00">svclb&#45;grafana&#45;svc&#45;n4xxx</text>
</g>
<!-- 57585d76&#45;cf32&#45;47f8&#45;84d0&#45;4d0f857ffb31&#45;&gt;8d7ceda2&#45;1e88&#45;43d6&#45;922b&#45;0a2e97641c45 -->
<g id="edge11" class="edge">
<title>57585d76&#45;cf32&#45;47f8&#45;84d0&#45;4d0f857ffb31&#45;&gt;8d7ceda2&#45;1e88&#45;43d6&#45;922b&#45;0a2e97641c45</title>
<path fill="none" stroke="#4284f3" d="M415.56,-518.73C442.37,-526.33 475.13,-535.61 504.95,-544.05"/>
<polygon fill="#4284f3" stroke="#4284f3" points="504.37,-547.53 514.94,-546.88 506.28,-540.79 504.37,-547.53"/>
</g>
<!-- 9d6ba88a&#45;4d50&#45;44c9&#45;836b&#45;4bbf2007c7fd -->
<g id="node30" class="node">
<title>9d6ba88a&#45;4d50&#45;44c9&#45;836b&#45;4bbf2007c7fd</title>
<polygon fill="#ffffff" stroke="#d3d3d3" points="516,-415 516,-461 665,-461 665,-415 516,-415"/>
<text text-anchor="start" x="524" y="-445.8" font-family="Times,serif" font-size="14.00">Pod</text>
<polyline fill="none" stroke="#d3d3d3" points="516,-438 665,-438 "/>
<text text-anchor="start" x="524" y="-422.8" font-family="Times,serif" font-size="14.00">svclb&#45;grafana&#45;svc&#45;8pdvf</text>
</g>
<!-- 57585d76&#45;cf32&#45;47f8&#45;84d0&#45;4d0f857ffb31&#45;&gt;9d6ba88a&#45;4d50&#45;44c9&#45;836b&#45;4bbf2007c7fd -->
<g id="edge10" class="edge">
<title>57585d76&#45;cf32&#45;47f8&#45;84d0&#45;4d0f857ffb31&#45;&gt;9d6ba88a&#45;4d50&#45;44c9&#45;836b&#45;4bbf2007c7fd</title>
<path fill="none" stroke="#4284f3" d="M415.56,-487.27C442.73,-479.57 476,-470.15 506.14,-461.61"/>
<polygon fill="#4284f3" stroke="#4284f3" points="507.14,-464.97 515.8,-458.87 505.23,-458.23 507.14,-464.97"/>
</g>
<!-- 6635b32d&#45;aca5&#45;4247&#45;82fc&#45;d087bbfb6177 -->
<g id="node18" class="node">
<title>6635b32d&#45;aca5&#45;4247&#45;82fc&#45;d087bbfb6177</title>
<polygon fill="#ffffff" stroke="#d3d3d3" points="24,-1325 24,-1371 214,-1371 214,-1325 24,-1325"/>
<text text-anchor="start" x="32" y="-1355.8" font-family="Times,serif" font-size="14.00">Secret</text>
<polyline fill="none" stroke="#d3d3d3" points="24,-1348 214,-1348 "/>
<text text-anchor="start" x="32" y="-1332.8" font-family="Times,serif" font-size="14.00">influxdb&#45;datasource&#45;provisioner</text>
</g>
<!-- 6963f53b&#45;bb35&#45;4af1&#45;8ee8&#45;daf47908d71b -->
<g id="node19" class="node">
<title>6963f53b&#45;bb35&#45;4af1&#45;8ee8&#45;daf47908d71b</title>
<polygon fill="#ffffff" stroke="#d3d3d3" points="292.5,-415 292.5,-461 425.5,-461 425.5,-415 292.5,-415"/>
<text text-anchor="start" x="300.5" y="-445.8" font-family="Times,serif" font-size="14.00">ReplicaSet</text>
<polyline fill="none" stroke="#d3d3d3" points="292.5,-438 425.5,-438 "/>
<text text-anchor="start" x="300.5" y="-422.8" font-family="Times,serif" font-size="14.00">influxdb&#45;5d54bb97dc</text>
</g>
<!-- 6963f53b&#45;bb35&#45;4af1&#45;8ee8&#45;daf47908d71b&#45;&gt;cd88c9c5&#45;70bf&#45;4287&#45;8b28&#45;7c0147076ed8 -->
<g id="edge13" class="edge">
<title>6963f53b&#45;bb35&#45;4af1&#45;8ee8&#45;daf47908d71b&#45;&gt;cd88c9c5&#45;70bf&#45;4287&#45;8b28&#45;7c0147076ed8</title>
<path fill="none" stroke="#4284f3" d="M425.77,-419.37C448.35,-412.98 474.05,-405.7 498.29,-398.83"/>
<polygon fill="#4284f3" stroke="#4284f3" points="499.54,-402.12 508.21,-396.02 497.64,-395.38 499.54,-402.12"/>
</g>
<!-- 6e84edfa&#45;edf6&#45;4636&#45;bd98&#45;007f031c762a -->
<g id="node20" class="node">
<title>6e84edfa&#45;edf6&#45;4636&#45;bd98&#45;007f031c762a</title>
<polygon fill="#ffffff" stroke="#d3d3d3" points="43,-1260 43,-1306 195,-1306 195,-1260 43,-1260"/>
<text text-anchor="start" x="51" y="-1290.8" font-family="Times,serif" font-size="14.00">Job</text>
<polyline fill="none" stroke="#d3d3d3" points="43,-1283 195,-1283 "/>
<text text-anchor="start" x="51" y="-1267.8" font-family="Times,serif" font-size="14.00">telefraf&#45;mtr&#45;1603553400</text>
</g>
<!-- e7ed50a0&#45;3f0f&#45;46ad&#45;87b3&#45;e5560dd7b540 -->
<g id="node50" class="node">
<title>e7ed50a0&#45;3f0f&#45;46ad&#45;87b3&#45;e5560dd7b540</title>
<polygon fill="#ffffff" stroke="#d3d3d3" points="268,-1260 268,-1306 450,-1306 450,-1260 268,-1260"/>
<text text-anchor="start" x="276" y="-1290.8" font-family="Times,serif" font-size="14.00">Pod</text>
<polyline fill="none" stroke="#d3d3d3" points="268,-1283 450,-1283 "/>
<text text-anchor="start" x="276" y="-1267.8" font-family="Times,serif" font-size="14.00">telefraf&#45;mtr&#45;1603553400&#45;vqfjj</text>
</g>
<!-- 6e84edfa&#45;edf6&#45;4636&#45;bd98&#45;007f031c762a&#45;&gt;e7ed50a0&#45;3f0f&#45;46ad&#45;87b3&#45;e5560dd7b540 -->
<g id="edge14" class="edge">
<title>6e84edfa&#45;edf6&#45;4636&#45;bd98&#45;007f031c762a&#45;&gt;e7ed50a0&#45;3f0f&#45;46ad&#45;87b3&#45;e5560dd7b540</title>
<path fill="none" stroke="#4284f3" d="M195.3,-1283C215.08,-1283 236.73,-1283 257.6,-1283"/>
<polygon fill="#4284f3" stroke="#4284f3" points="257.77,-1286.5 267.77,-1283 257.77,-1279.5 257.77,-1286.5"/>
</g>
<!-- 76027a23&#45;e4d3&#45;4973&#45;969d&#45;434a5b1e7b86 -->
<g id="node22" class="node">
<title>76027a23&#45;e4d3&#45;4973&#45;969d&#45;434a5b1e7b86</title>
<polygon fill="#ffffff" stroke="#d3d3d3" points="55,-1195 55,-1241 183,-1241 183,-1195 55,-1195"/>
<text text-anchor="start" x="63" y="-1225.8" font-family="Times,serif" font-size="14.00">ConfigMap</text>
<polyline fill="none" stroke="#d3d3d3" points="55,-1218 183,-1218 "/>
<text text-anchor="start" x="63" y="-1202.8" font-family="Times,serif" font-size="14.00">raspberry&#45;dashboard</text>
</g>
<!-- 842a6ce1&#45;553e&#45;c7cd&#45;4d09&#45;2178ba67026e -->
<g id="node24" class="node">
<title>842a6ce1&#45;553e&#45;c7cd&#45;4d09&#45;2178ba67026e</title>
<polygon fill="#ffffff" stroke="#d3d3d3" points="713,-545 713,-591 798,-591 798,-545 713,-545"/>
<text text-anchor="start" x="721" y="-575.8" font-family="Times,serif" font-size="14.00">Container</text>
<polyline fill="none" stroke="#d3d3d3" points="713,-568 798,-568 "/>
<text text-anchor="start" x="721" y="-552.8" font-family="Times,serif" font-size="14.00">lb&#45;port&#45;3000</text>
</g>
<!-- 8cac5625&#45;129f&#45;40a8&#45;908e&#45;169af3406be7 -->
<g id="node25" class="node">
<title>8cac5625&#45;129f&#45;40a8&#45;908e&#45;169af3406be7</title>
<polygon fill="#ffffff" stroke="#d3d3d3" points="71,-1130 71,-1176 167,-1176 167,-1130 71,-1130"/>
<text text-anchor="start" x="79" y="-1160.8" font-family="Times,serif" font-size="14.00">ConfigMap</text>
<polyline fill="none" stroke="#d3d3d3" points="71,-1153 167,-1153 "/>
<text text-anchor="start" x="79" y="-1137.8" font-family="Times,serif" font-size="14.00">telegraf&#45;config</text>
</g>
<!-- 8d7ceda2&#45;1e88&#45;43d6&#45;922b&#45;0a2e97641c45&#45;&gt;842a6ce1&#45;553e&#45;c7cd&#45;4d09&#45;2178ba67026e -->
<g id="edge15" class="edge">
<title>8d7ceda2&#45;1e88&#45;43d6&#45;922b&#45;0a2e97641c45&#45;&gt;842a6ce1&#45;553e&#45;c7cd&#45;4d09&#45;2178ba67026e</title>
<path fill="none" stroke="#4284f3" d="M666.32,-568C678.5,-568 690.87,-568 702.35,-568"/>
<polygon fill="#4284f3" stroke="#4284f3" points="702.61,-571.5 712.61,-568 702.61,-564.5 702.61,-571.5"/>
</g>
<!-- 8e0e42d8&#45;fcb9&#45;4977&#45;a82f&#45;5483e186cf27 -->
<g id="node27" class="node">
<title>8e0e42d8&#45;fcb9&#45;4977&#45;a82f&#45;5483e186cf27</title>
<polygon fill="#ffffff" stroke="#d3d3d3" points="250,-25 250,-71 468,-71 468,-25 250,-25"/>
<text text-anchor="start" x="258" y="-55.8" font-family="Times,serif" font-size="14.00">Pod</text>
<polyline fill="none" stroke="#d3d3d3" points="250,-48 468,-48 "/>
<text text-anchor="start" x="258" y="-32.8" font-family="Times,serif" font-size="14.00">telefraf&#45;speedtest&#45;1603552200&#45;p8qps</text>
</g>
<!-- 8e0e42d8&#45;fcb9&#45;4977&#45;a82f&#45;5483e186cf27&#45;&gt;22a5c89c&#45;5015&#45;bcf1&#45;59ac&#45;74bb664198ba -->
<g id="edge16" class="edge">
<title>8e0e42d8&#45;fcb9&#45;4977&#45;a82f&#45;5483e186cf27&#45;&gt;22a5c89c&#45;5015&#45;bcf1&#45;59ac&#45;74bb664198ba</title>
<path fill="none" stroke="#4284f3" d="M468.03,-48C487.27,-48 506.77,-48 524.34,-48"/>
<polygon fill="#4284f3" stroke="#4284f3" points="524.45,-51.5 534.45,-48 524.45,-44.5 524.45,-51.5"/>
</g>
<!-- 94f3661f&#45;f0c2&#45;7e80&#45;5277&#45;df25c5d6bbd3 -->
<g id="node28" class="node">
<title>94f3661f&#45;f0c2&#45;7e80&#45;5277&#45;df25c5d6bbd3</title>
<polygon fill="#ffffff" stroke="#d3d3d3" points="534.5,-675 534.5,-721 646.5,-721 646.5,-675 534.5,-675"/>
<text text-anchor="start" x="542.5" y="-705.8" font-family="Times,serif" font-size="14.00">Container</text>
<polyline fill="none" stroke="#d3d3d3" points="534.5,-698 646.5,-698 "/>
<text text-anchor="start" x="542.5" y="-682.8" font-family="Times,serif" font-size="14.00">telegraf&#45;speedtest</text>
</g>
<!-- 9ab0b5cc&#45;83b2&#45;4206&#45;ab71&#45;694ba607c75b -->
<g id="node29" class="node">
<title>9ab0b5cc&#45;83b2&#45;4206&#45;ab71&#45;694ba607c75b</title>
<polygon fill="#ffffff" stroke="#d3d3d3" points="266.5,-90 266.5,-136 451.5,-136 451.5,-90 266.5,-90"/>
<text text-anchor="start" x="274.5" y="-120.8" font-family="Times,serif" font-size="14.00">Pod</text>
<polyline fill="none" stroke="#d3d3d3" points="266.5,-113 451.5,-113 "/>
<text text-anchor="start" x="274.5" y="-97.8" font-family="Times,serif" font-size="14.00">telefraf&#45;mtr&#45;1603552200&#45;zctvz</text>
</g>
<!-- 9ab0b5cc&#45;83b2&#45;4206&#45;ab71&#45;694ba607c75b&#45;&gt;54ade014&#45;05ab&#45;74b6&#45;dc24&#45;76aa2100c146 -->
<g id="edge17" class="edge">
<title>9ab0b5cc&#45;83b2&#45;4206&#45;ab71&#45;694ba607c75b&#45;&gt;54ade014&#45;05ab&#45;74b6&#45;dc24&#45;76aa2100c146</title>
<path fill="none" stroke="#4284f3" d="M451.69,-113C481.54,-113 513.56,-113 539.21,-113"/>
<polygon fill="#4284f3" stroke="#4284f3" points="539.43,-116.5 549.43,-113 539.43,-109.5 539.43,-116.5"/>
</g>
<!-- 9d6ba88a&#45;4d50&#45;44c9&#45;836b&#45;4bbf2007c7fd&#45;&gt;3403f7e1&#45;58c9&#45;fd61&#45;519f&#45;236620837808 -->
<g id="edge18" class="edge">
<title>9d6ba88a&#45;4d50&#45;44c9&#45;836b&#45;4bbf2007c7fd&#45;&gt;3403f7e1&#45;58c9&#45;fd61&#45;519f&#45;236620837808</title>
<path fill="none" stroke="#4284f3" d="M665.37,-438C678.01,-438 690.89,-438 702.8,-438"/>
<polygon fill="#4284f3" stroke="#4284f3" points="702.97,-441.5 712.97,-438 702.97,-434.5 702.97,-441.5"/>
</g>
<!-- b477c141&#45;6786&#45;416c&#45;5c7f&#45;eb13828992a4 -->
<g id="node38" class="node">
<title>b477c141&#45;6786&#45;416c&#45;5c7f&#45;eb13828992a4</title>
<polygon fill="#ffffff" stroke="#d3d3d3" points="720.5,-610 720.5,-656 790.5,-656 790.5,-610 720.5,-610"/>
<text text-anchor="start" x="728.5" y="-640.8" font-family="Times,serif" font-size="14.00">Container</text>
<polyline fill="none" stroke="#d3d3d3" points="720.5,-633 790.5,-633 "/>
<text text-anchor="start" x="728.5" y="-617.8" font-family="Times,serif" font-size="14.00">grafana</text>
</g>
<!-- 9e72b254&#45;4954&#45;41ad&#45;962d&#45;7ab0b90d6a30&#45;&gt;b477c141&#45;6786&#45;416c&#45;5c7f&#45;eb13828992a4 -->
<g id="edge19" class="edge">
<title>9e72b254&#45;4954&#45;41ad&#45;962d&#45;7ab0b90d6a30&#45;&gt;b477c141&#45;6786&#45;416c&#45;5c7f&#45;eb13828992a4</title>
<path fill="none" stroke="#4284f3" d="M675.86,-633C687.63,-633 699.32,-633 709.95,-633"/>
<polygon fill="#4284f3" stroke="#4284f3" points="710.18,-636.5 720.18,-633 710.18,-629.5 710.18,-636.5"/>
</g>
<!-- a575de8d&#45;da11&#45;4668&#45;9a81&#45;296423e8a32f -->
<g id="node32" class="node">
<title>a575de8d&#45;da11&#45;4668&#45;9a81&#45;296423e8a32f</title>
<polygon fill="#ffffff" stroke="#d3d3d3" points="77,-1065 77,-1111 161,-1111 161,-1065 77,-1065"/>
<text text-anchor="start" x="85" y="-1095.8" font-family="Times,serif" font-size="14.00">Deployment</text>
<polyline fill="none" stroke="#d3d3d3" points="77,-1088 161,-1088 "/>
<text text-anchor="start" x="85" y="-1072.8" font-family="Times,serif" font-size="14.00">grafana</text>
</g>
<!-- a7bee01b&#45;df54&#45;4973&#45;af58&#45;f28b90588b33 -->
<g id="node34" class="node">
<title>a7bee01b&#45;df54&#45;4973&#45;af58&#45;f28b90588b33</title>
<polygon fill="#ffffff" stroke="#d3d3d3" points="58.5,-1000 58.5,-1046 179.5,-1046 179.5,-1000 58.5,-1000"/>
<text text-anchor="start" x="66.5" y="-1030.8" font-family="Times,serif" font-size="14.00">ConfigMap</text>
<polyline fill="none" stroke="#d3d3d3" points="58.5,-1023 179.5,-1023 "/>
<text text-anchor="start" x="66.5" y="-1007.8" font-family="Times,serif" font-size="14.00">network&#45;dashboard</text>
</g>
<!-- abf189c0&#45;d2dd&#45;423f&#45;aa25&#45;6b4e8f37bb2c -->
<g id="node35" class="node">
<title>abf189c0&#45;d2dd&#45;423f&#45;aa25&#45;6b4e8f37bb2c</title>
<polygon fill="#ffffff" stroke="#d3d3d3" points="46,-935 46,-981 192,-981 192,-935 46,-935"/>
<text text-anchor="start" x="54" y="-965.8" font-family="Times,serif" font-size="14.00">PersistentVolumeClaim</text>
<polyline fill="none" stroke="#d3d3d3" points="46,-958 192,-958 "/>
<text text-anchor="start" x="54" y="-942.8" font-family="Times,serif" font-size="14.00">influxdb&#45;pvc</text>
</g>
<!-- b1b84685&#45;443a&#45;42a6&#45;81ed&#45;07015506d1d0 -->
<g id="node36" class="node">
<title>b1b84685&#45;443a&#45;42a6&#45;81ed&#45;07015506d1d0</title>
<polygon fill="#ffffff" stroke="#d3d3d3" points="46,-870 46,-916 192,-916 192,-870 46,-870"/>
<text text-anchor="start" x="54" y="-900.8" font-family="Times,serif" font-size="14.00">PersistentVolumeClaim</text>
<polyline fill="none" stroke="#d3d3d3" points="46,-893 192,-893 "/>
<text text-anchor="start" x="54" y="-877.8" font-family="Times,serif" font-size="14.00">grafana&#45;pvc</text>
</g>
<!-- b35842e2&#45;1594&#45;4cb3&#45;a6a9&#45;59e6e9985368 -->
<g id="node37" class="node">
<title>b35842e2&#45;1594&#45;4cb3&#45;a6a9&#45;59e6e9985368</title>
<polygon fill="#ffffff" stroke="#d3d3d3" points="43,-805 43,-851 195,-851 195,-805 43,-805"/>
<text text-anchor="start" x="51" y="-835.8" font-family="Times,serif" font-size="14.00">Job</text>
<polyline fill="none" stroke="#d3d3d3" points="43,-828 195,-828 "/>
<text text-anchor="start" x="51" y="-812.8" font-family="Times,serif" font-size="14.00">telefraf&#45;mtr&#45;1603552800</text>
</g>
<!-- b35842e2&#45;1594&#45;4cb3&#45;a6a9&#45;59e6e9985368&#45;&gt;54e52f54&#45;9c38&#45;4dc2&#45;b493&#45;4c96c144fbef -->
<g id="edge20" class="edge">
<title>b35842e2&#45;1594&#45;4cb3&#45;a6a9&#45;59e6e9985368&#45;&gt;54e52f54&#45;9c38&#45;4dc2&#45;b493&#45;4c96c144fbef</title>
<path fill="none" stroke="#4284f3" d="M195.3,-828C214.18,-828 234.75,-828 254.73,-828"/>
<polygon fill="#4284f3" stroke="#4284f3" points="254.79,-831.5 264.79,-828 254.79,-824.5 254.79,-831.5"/>
</g>
<!-- b82c4469&#45;4ccb&#45;4111&#45;8135&#45;f79ffbaeb83c -->
<g id="node39" class="node">
<title>b82c4469&#45;4ccb&#45;4111&#45;8135&#45;f79ffbaeb83c</title>
<polygon fill="#ffffff" stroke="#d3d3d3" points="27.5,-740 27.5,-786 210.5,-786 210.5,-740 27.5,-740"/>
<text text-anchor="start" x="35.5" y="-770.8" font-family="Times,serif" font-size="14.00">ConfigMap</text>
<polyline fill="none" stroke="#d3d3d3" points="27.5,-763 210.5,-763 "/>
<text text-anchor="start" x="35.5" y="-747.8" font-family="Times,serif" font-size="14.00">grafana&#45;dashboard&#45;provisioner</text>
</g>
<!-- bb877bad&#45;242a&#45;4f9f&#45;aa20&#45;b8220ec6cc73 -->
<g id="node40" class="node">
<title>bb877bad&#45;242a&#45;4f9f&#45;aa20&#45;b8220ec6cc73</title>
<polygon fill="#ffffff" stroke="#d3d3d3" points="64,-675 64,-721 174,-721 174,-675 64,-675"/>
<text text-anchor="start" x="72" y="-705.8" font-family="Times,serif" font-size="14.00">CronJob</text>
<polyline fill="none" stroke="#d3d3d3" points="64,-698 174,-698 "/>
<text text-anchor="start" x="72" y="-682.8" font-family="Times,serif" font-size="14.00">telefraf&#45;speedtest</text>
</g>
<!-- cd115076&#45;b1ca&#45;485f&#45;8fd2&#45;440d2c4221e1 -->
<g id="node41" class="node">
<title>cd115076&#45;b1ca&#45;485f&#45;8fd2&#45;440d2c4221e1</title>
<polygon fill="#ffffff" stroke="#d3d3d3" points="28,-610 28,-656 210,-656 210,-610 28,-610"/>
<text text-anchor="start" x="36" y="-640.8" font-family="Times,serif" font-size="14.00">Job</text>
<polyline fill="none" stroke="#d3d3d3" points="28,-633 210,-633 "/>
<text text-anchor="start" x="36" y="-617.8" font-family="Times,serif" font-size="14.00">telefraf&#45;speedtest&#45;1603552800</text>
</g>
<!-- dddc3eb3&#45;d8e6&#45;47a6&#45;a991&#45;eefbdb9cd2bb -->
<g id="node45" class="node">
<title>dddc3eb3&#45;d8e6&#45;47a6&#45;a991&#45;eefbdb9cd2bb</title>
<polygon fill="#ffffff" stroke="#d3d3d3" points="252.5,-675 252.5,-721 465.5,-721 465.5,-675 252.5,-675"/>
<text text-anchor="start" x="260.5" y="-705.8" font-family="Times,serif" font-size="14.00">Pod</text>
<polyline fill="none" stroke="#d3d3d3" points="252.5,-698 465.5,-698 "/>
<text text-anchor="start" x="260.5" y="-682.8" font-family="Times,serif" font-size="14.00">telefraf&#45;speedtest&#45;1603552800&#45;tz9vt</text>
</g>
<!-- cd115076&#45;b1ca&#45;485f&#45;8fd2&#45;440d2c4221e1&#45;&gt;dddc3eb3&#45;d8e6&#45;47a6&#45;a991&#45;eefbdb9cd2bb -->
<g id="edge21" class="edge">
<title>cd115076&#45;b1ca&#45;485f&#45;8fd2&#45;440d2c4221e1&#45;&gt;dddc3eb3&#45;d8e6&#45;47a6&#45;a991&#45;eefbdb9cd2bb</title>
<path fill="none" stroke="#4284f3" d="M204.24,-656.01C223.46,-661.26 244.01,-666.87 263.62,-672.22"/>
<polygon fill="#4284f3" stroke="#4284f3" points="262.9,-675.65 273.47,-674.91 264.74,-668.9 262.9,-675.65"/>
</g>
<!-- cd88c9c5&#45;70bf&#45;4287&#45;8b28&#45;7c0147076ed8&#45;&gt;3465d92a&#45;ab01&#45;6ac0&#45;b3dd&#45;4aa8384263d9 -->
<g id="edge22" class="edge">
<title>cd88c9c5&#45;70bf&#45;4287&#45;8b28&#45;7c0147076ed8&#45;&gt;3465d92a&#45;ab01&#45;6ac0&#45;b3dd&#45;4aa8384263d9</title>
<path fill="none" stroke="#4284f3" d="M677.3,-373C688.57,-373 699.73,-373 709.91,-373"/>
<polygon fill="#4284f3" stroke="#4284f3" points="710.14,-376.5 720.14,-373 710.14,-369.5 710.14,-376.5"/>
</g>
<!-- e288e504&#45;a4cd&#45;d201&#45;7b5d&#45;e2eab62ebb22 -->
<g id="node48" class="node">
<title>e288e504&#45;a4cd&#45;d201&#45;7b5d&#45;e2eab62ebb22</title>
<polygon fill="#ffffff" stroke="#d3d3d3" points="534.5,-1390 534.5,-1436 646.5,-1436 646.5,-1390 534.5,-1390"/>
<text text-anchor="start" x="542.5" y="-1420.8" font-family="Times,serif" font-size="14.00">Container</text>
<polyline fill="none" stroke="#d3d3d3" points="534.5,-1413 646.5,-1413 "/>
<text text-anchor="start" x="542.5" y="-1397.8" font-family="Times,serif" font-size="14.00">telegraf&#45;speedtest</text>
</g>
<!-- d00db8a7&#45;f362&#45;4b9c&#45;bb80&#45;d7f82ab60771&#45;&gt;e288e504&#45;a4cd&#45;d201&#45;7b5d&#45;e2eab62ebb22 -->
<g id="edge23" class="edge">
<title>d00db8a7&#45;f362&#45;4b9c&#45;bb80&#45;d7f82ab60771&#45;&gt;e288e504&#45;a4cd&#45;d201&#45;7b5d&#45;e2eab62ebb22</title>
<path fill="none" stroke="#4284f3" d="M467.02,-1413C486.46,-1413 506.2,-1413 523.99,-1413"/>
<polygon fill="#4284f3" stroke="#4284f3" points="524.22,-1416.5 534.22,-1413 524.22,-1409.5 524.22,-1416.5"/>
</g>
<!-- dddc3eb3&#45;d8e6&#45;47a6&#45;a991&#45;eefbdb9cd2bb&#45;&gt;94f3661f&#45;f0c2&#45;7e80&#45;5277&#45;df25c5d6bbd3 -->
<g id="edge24" class="edge">
<title>dddc3eb3&#45;d8e6&#45;47a6&#45;a991&#45;eefbdb9cd2bb&#45;&gt;94f3661f&#45;f0c2&#45;7e80&#45;5277&#45;df25c5d6bbd3</title>
<path fill="none" stroke="#4284f3" d="M465.68,-698C485.64,-698 505.97,-698 524.22,-698"/>
<polygon fill="#4284f3" stroke="#4284f3" points="524.43,-701.5 534.43,-698 524.43,-694.5 524.43,-701.5"/>
</g>
<!-- e062a851&#45;e054&#45;4cc5&#45;ab5e&#45;cfebd5a5ee57 -->
<g id="node46" class="node">
<title>e062a851&#45;e054&#45;4cc5&#45;ab5e&#45;cfebd5a5ee57</title>
<polygon fill="#ffffff" stroke="#d3d3d3" points="51,-545 51,-591 187,-591 187,-545 51,-545"/>
<text text-anchor="start" x="59" y="-575.8" font-family="Times,serif" font-size="14.00">Secret</text>
<polyline fill="none" stroke="#d3d3d3" points="51,-568 187,-568 "/>
<text text-anchor="start" x="59" y="-552.8" font-family="Times,serif" font-size="14.00">isp&#45;checker&#45;secrets&#45;ro</text>
</g>
<!-- e2883fcc&#45;99f2&#45;4d9b&#45;815b&#45;b28e22c7de51 -->
<g id="node47" class="node">
<title>e2883fcc&#45;99f2&#45;4d9b&#45;815b&#45;b28e22c7de51</title>
<polygon fill="#ffffff" stroke="#d3d3d3" points="57,-480 57,-526 181,-526 181,-480 57,-480"/>
<text text-anchor="start" x="65" y="-510.8" font-family="Times,serif" font-size="14.00">Secret</text>
<polyline fill="none" stroke="#d3d3d3" points="57,-503 181,-503 "/>
<text text-anchor="start" x="65" y="-487.8" font-family="Times,serif" font-size="14.00">default&#45;token&#45;6njx8</text>
</g>
<!-- e4fbd174&#45;c479&#45;4aad&#45;ab6d&#45;296923abe677 -->
<g id="node49" class="node">
<title>e4fbd174&#45;c479&#45;4aad&#45;ab6d&#45;296923abe677</title>
<polygon fill="#ffffff" stroke="#d3d3d3" points="49.5,-415 49.5,-461 188.5,-461 188.5,-415 49.5,-415"/>
<text text-anchor="start" x="57.5" y="-445.8" font-family="Times,serif" font-size="14.00">Secret</text>
<polyline fill="none" stroke="#d3d3d3" points="49.5,-438 188.5,-438 "/>
<text text-anchor="start" x="57.5" y="-422.8" font-family="Times,serif" font-size="14.00">isp&#45;checker&#45;secrets&#45;rw</text>
</g>
<!-- e7ed50a0&#45;3f0f&#45;46ad&#45;87b3&#45;e5560dd7b540&#45;&gt;4c69b87b&#45;f38c&#45;97bd&#45;bf89&#45;86f67b5fae91 -->
<g id="edge25" class="edge">
<title>e7ed50a0&#45;3f0f&#45;46ad&#45;87b3&#45;e5560dd7b540&#45;&gt;4c69b87b&#45;f38c&#45;97bd&#45;bf89&#45;86f67b5fae91</title>
<path fill="none" stroke="#4284f3" d="M450.05,-1283C480.42,-1283 513.22,-1283 539.38,-1283"/>
<polygon fill="#4284f3" stroke="#4284f3" points="539.42,-1286.5 549.42,-1283 539.42,-1279.5 539.42,-1286.5"/>
</g>
<!-- e87be3ff&#45;463b&#45;466b&#45;9068&#45;7620af362375 -->
<g id="node51" class="node">
<title>e87be3ff&#45;463b&#45;466b&#45;9068&#45;7620af362375</title>
<polygon fill="#ffffff" stroke="#d3d3d3" points="77,-350 77,-396 161,-396 161,-350 77,-350"/>
<text text-anchor="start" x="85" y="-380.8" font-family="Times,serif" font-size="14.00">Deployment</text>
<polyline fill="none" stroke="#d3d3d3" points="77,-373 161,-373 "/>
<text text-anchor="start" x="85" y="-357.8" font-family="Times,serif" font-size="14.00">influxdb</text>
</g>
<!-- f21fcd94&#45;36e5&#45;4bd3&#45;8a41&#45;85a821c6be9f -->
<g id="node52" class="node">
<title>f21fcd94&#45;36e5&#45;4bd3&#45;8a41&#45;85a821c6be9f</title>
<polygon fill="#ffffff" stroke="#d3d3d3" points="79,-155 79,-201 159,-201 159,-155 79,-155"/>
<text text-anchor="start" x="87" y="-185.8" font-family="Times,serif" font-size="14.00">DaemonSet</text>
<polyline fill="none" stroke="#d3d3d3" points="79,-178 159,-178 "/>
<text text-anchor="start" x="87" y="-162.8" font-family="Times,serif" font-size="14.00">telegraf</text>
</g>
<!-- f21fcd94&#45;36e5&#45;4bd3&#45;8a41&#45;85a821c6be9f&#45;&gt;03bb06ee&#45;3478&#45;47de&#45;a239&#45;4ae5f8b31f08 -->
<g id="edge27" class="edge">
<title>f21fcd94&#45;36e5&#45;4bd3&#45;8a41&#45;85a821c6be9f&#45;&gt;03bb06ee&#45;3478&#45;47de&#45;a239&#45;4ae5f8b31f08</title>
<path fill="none" stroke="#4284f3" d="M159.37,-185.07C177.58,-189.93 198.54,-197.94 214,-211 239.23,-232.31 224.25,-255.32 250,-276 265.25,-288.25 285.07,-295.81 303.56,-300.48"/>
<polygon fill="#4284f3" stroke="#4284f3" points="302.84,-303.9 313.37,-302.72 304.41,-297.08 302.84,-303.9"/>
</g>
<!-- f21fcd94&#45;36e5&#45;4bd3&#45;8a41&#45;85a821c6be9f&#45;&gt;4d34a878&#45;8dd1&#45;4eb5&#45;a7dc&#45;a3e72cbedbe9 -->
<g id="edge26" class="edge">
<title>f21fcd94&#45;36e5&#45;4bd3&#45;8a41&#45;85a821c6be9f&#45;&gt;4d34a878&#45;8dd1&#45;4eb5&#45;a7dc&#45;a3e72cbedbe9</title>
<path fill="none" stroke="#4284f3" d="M159.03,-178C197.49,-178 256.69,-178 300.52,-178"/>
<polygon fill="#4284f3" stroke="#4284f3" points="300.75,-181.5 310.75,-178 300.75,-174.5 300.75,-181.5"/>
</g>
<!-- f21fcd94&#45;36e5&#45;4bd3&#45;8a41&#45;85a821c6be9f&#45;&gt;53c3d993&#45;7c0f&#45;4c67&#45;bc5c&#45;9a831e380156 -->
<g id="edge28" class="edge">
<title>f21fcd94&#45;36e5&#45;4bd3&#45;8a41&#45;85a821c6be9f&#45;&gt;53c3d993&#45;7c0f&#45;4c67&#45;bc5c&#45;9a831e380156</title>
<path fill="none" stroke="#4284f3" d="M159.03,-188.66C198.63,-199.48 260.23,-216.3 304.39,-228.36"/>
<polygon fill="#4284f3" stroke="#4284f3" points="303.52,-231.75 314.09,-231.01 305.37,-225 303.52,-231.75"/>
</g>
<!-- f2e5ddf6&#45;31f9&#45;4d00&#45;ab26&#45;7873c2db3581 -->
<g id="node53" class="node">
<title>f2e5ddf6&#45;31f9&#45;4d00&#45;ab26&#45;7873c2db3581</title>
<polygon fill="#ffffff" stroke="#d3d3d3" points="79,-285 79,-331 159,-331 159,-285 79,-285"/>
<text text-anchor="start" x="87" y="-315.8" font-family="Times,serif" font-size="14.00">Service</text>
<polyline fill="none" stroke="#d3d3d3" points="79,-308 159,-308 "/>
<text text-anchor="start" x="87" y="-292.8" font-family="Times,serif" font-size="14.00">grafana&#45;svc</text>
</g>
<!-- f2e5ddf6&#45;31f9&#45;4d00&#45;ab26&#45;7873c2db3581&#45;&gt;257231a5&#45;5bff&#45;4d64&#45;98df&#45;e9ac70ff1219 -->
<g id="edge30" class="edge">
<title>f2e5ddf6&#45;31f9&#45;4d00&#45;ab26&#45;7873c2db3581&#45;&gt;257231a5&#45;5bff&#45;4d64&#45;98df&#45;e9ac70ff1219</title>
<path fill="none" stroke="#4284f3" d="M159.02,-312.48C178.29,-316.72 200.28,-324.97 214,-341 271.3,-407.96 191.05,-470.48 250,-536 264.89,-552.55 287.9,-560.71 308.87,-564.67"/>
<polygon fill="#4284f3" stroke="#4284f3" points="308.52,-568.16 318.95,-566.29 309.63,-561.25 308.52,-568.16"/>
</g>
<!-- f2e5ddf6&#45;31f9&#45;4d00&#45;ab26&#45;7873c2db3581&#45;&gt;57585d76&#45;cf32&#45;47f8&#45;84d0&#45;4d0f857ffb31 -->
<g id="edge29" class="edge">
<title>f2e5ddf6&#45;31f9&#45;4d00&#45;ab26&#45;7873c2db3581&#45;&gt;57585d76&#45;cf32&#45;47f8&#45;84d0&#45;4d0f857ffb31</title>
<path fill="none" stroke="#4284f3" d="M159.4,-313.21C178.29,-317.64 199.83,-325.84 214,-341 254.94,-384.8 207.99,-428.23 250,-471 261.46,-482.67 276.96,-490.13 292.64,-494.88"/>
<polygon fill="#4284f3" stroke="#4284f3" points="291.82,-498.29 302.39,-497.51 293.64,-491.53 291.82,-498.29"/>
</g>
<!-- f8887fd4&#45;869d&#45;46b0&#45;a43a&#45;fa009411ad8f -->
<g id="node54" class="node">
<title>f8887fd4&#45;869d&#45;46b0&#45;a43a&#45;fa009411ad8f</title>
<polygon fill="#ffffff" stroke="#d3d3d3" points="43,-90 43,-136 195,-136 195,-90 43,-90"/>
<text text-anchor="start" x="51" y="-120.8" font-family="Times,serif" font-size="14.00">Job</text>
<polyline fill="none" stroke="#d3d3d3" points="43,-113 195,-113 "/>
<text text-anchor="start" x="51" y="-97.8" font-family="Times,serif" font-size="14.00">telefraf&#45;mtr&#45;1603552200</text>
</g>
<!-- f8887fd4&#45;869d&#45;46b0&#45;a43a&#45;fa009411ad8f&#45;&gt;9ab0b5cc&#45;83b2&#45;4206&#45;ab71&#45;694ba607c75b -->
<g id="edge31" class="edge">
<title>f8887fd4&#45;869d&#45;46b0&#45;a43a&#45;fa009411ad8f&#45;&gt;9ab0b5cc&#45;83b2&#45;4206&#45;ab71&#45;694ba607c75b</title>
<path fill="none" stroke="#4284f3" d="M195.3,-113C214.73,-113 235.96,-113 256.49,-113"/>
<polygon fill="#4284f3" stroke="#4284f3" points="256.49,-116.5 266.49,-113 256.49,-109.5 256.49,-116.5"/>
</g>
<!-- fe751f6d&#45;5d0b&#45;4730&#45;936d&#45;9292d40696e3 -->
<g id="node55" class="node">
<title>fe751f6d&#45;5d0b&#45;4730&#45;936d&#45;9292d40696e3</title>
<polygon fill="#ffffff" stroke="#d3d3d3" points="77,-220 77,-266 161,-266 161,-220 77,-220"/>
<text text-anchor="start" x="85" y="-250.8" font-family="Times,serif" font-size="14.00">Service</text>
<polyline fill="none" stroke="#d3d3d3" points="77,-243 161,-243 "/>
<text text-anchor="start" x="85" y="-227.8" font-family="Times,serif" font-size="14.00">influxdb&#45;svc</text>
</g>
<!-- fe751f6d&#45;5d0b&#45;4730&#45;936d&#45;9292d40696e3&#45;&gt;1d221322&#45;0b76&#45;4aa0&#45;9b18&#45;184e78987b56 -->
<g id="edge32" class="edge">
<title>fe751f6d&#45;5d0b&#45;4730&#45;936d&#45;9292d40696e3&#45;&gt;1d221322&#45;0b76&#45;4aa0&#45;9b18&#45;184e78987b56</title>
<path fill="none" stroke="#4284f3" d="M161.25,-250.58C179,-255.48 199.07,-263.39 214,-276 239.23,-297.31 224.25,-320.32 250,-341 266.17,-353.98 287.47,-361.7 306.87,-366.29"/>
<polygon fill="#4284f3" stroke="#4284f3" points="306.3,-369.74 316.81,-368.41 307.77,-362.9 306.3,-369.74"/>
</g>
<!-- feeca386&#45;facc&#45;42ff&#45;bb30&#45;6a506cc6e7a3 -->
<g id="node56" class="node">
<title>feeca386&#45;facc&#45;42ff&#45;bb30&#45;6a506cc6e7a3</title>
<polygon fill="#ffffff" stroke="#d3d3d3" points="28,-25 28,-71 210,-71 210,-25 28,-25"/>
<text text-anchor="start" x="36" y="-55.8" font-family="Times,serif" font-size="14.00">Job</text>
<polyline fill="none" stroke="#d3d3d3" points="28,-48 210,-48 "/>
<text text-anchor="start" x="36" y="-32.8" font-family="Times,serif" font-size="14.00">telefraf&#45;speedtest&#45;1603552200</text>
</g>
<!-- feeca386&#45;facc&#45;42ff&#45;bb30&#45;6a506cc6e7a3&#45;&gt;8e0e42d8&#45;fcb9&#45;4977&#45;a82f&#45;5483e186cf27 -->
<g id="edge33" class="edge">
<title>feeca386&#45;facc&#45;42ff&#45;bb30&#45;6a506cc6e7a3&#45;&gt;8e0e42d8&#45;fcb9&#45;4977&#45;a82f&#45;5483e186cf27</title>
<path fill="none" stroke="#4284f3" d="M210.32,-48C219.88,-48 229.71,-48 239.53,-48"/>
<polygon fill="#4284f3" stroke="#4284f3" points="239.76,-51.5 249.76,-48 239.76,-44.5 239.76,-51.5"/>
</g>
</g>
</svg>
